<?xml version="1.0" encoding="utf-8" standalone="no"?>
<!DOCTYPE svg PUBLIC "-//W3C//DTD SVG 1.1//EN"
  "http://www.w3.org/Graphics/SVG/1.1/DTD/svg11.dtd">
<svg xmlns:xlink="http://www.w3.org/1999/xlink" width="280.530819pt" height="388.360437pt" viewBox="0 0 280.530819 388.360437" xmlns="http://www.w3.org/2000/svg" version="1.1">
 <metadata>
  <rdf:RDF xmlns:dc="http://purl.org/dc/elements/1.1/" xmlns:cc="http://creativecommons.org/ns#" xmlns:rdf="http://www.w3.org/1999/02/22-rdf-syntax-ns#">
   <cc:Work>
    <dc:type rdf:resource="http://purl.org/dc/dcmitype/StillImage"/>
    <dc:description>Five selection by source. One panel per source, one row per reviewer; each line runs from that source's random-pick rate to the reviewer's selection rate, which is labeled. Mixed pools only.</dc:description>
    <dc:format>image/svg+xml</dc:format>
    <dc:creator>
     <cc:Agent>
      <dc:title>generate_second_life_tb4_figures.py</dc:title>
     </cc:Agent>
    </dc:creator>
   </cc:Work>
  </rdf:RDF>
 </metadata>
 <defs>
  <style type="text/css">*{stroke-linejoin: round; stroke-linecap: butt}</style>
 </defs>
 <g id="figure_1">
  <g id="patch_1">
   <path d="M 0 388.360437 
L 280.530819 388.360437 
L 280.530819 0 
L 0 0 
L 0 388.360437 
z
" style="fill: none"/>
  </g>
  <g id="axes_1">
   <g id="patch_2">
    <path d="M 67.754219 177.740354 
L 167.819056 177.740354 
L 167.819056 31.009676 
L 67.754219 31.009676 
L 67.754219 177.740354 
z
" style="fill: none"/>
   </g>
   <g id="matplotlib.axis_1">
    <g id="xtick_1">
     <g id="line2d_1">
      <path d="M 92.770428 177.740354 
L 92.770428 31.009676 
" clip-path="url(#pbc809c0da9)" style="fill: none; stroke: #dfe4e9; stroke-opacity: 0.7; stroke-width: 0.6; stroke-linecap: square"/>
     </g>
     <g id="line2d_2"/>
    </g>
    <g id="xtick_2">
     <g id="line2d_3">
      <path d="M 124.04069 177.740354 
L 124.04069 31.009676 
" clip-path="url(#pbc809c0da9)" style="fill: none; stroke: #dfe4e9; stroke-opacity: 0.7; stroke-width: 0.6; stroke-linecap: square"/>
     </g>
     <g id="line2d_4"/>
    </g>
    <g id="xtick_3">
     <g id="line2d_5">
      <path d="M 155.310952 177.740354 
L 155.310952 31.009676 
" clip-path="url(#pbc809c0da9)" style="fill: none; stroke: #dfe4e9; stroke-opacity: 0.7; stroke-width: 0.6; stroke-linecap: square"/>
     </g>
     <g id="line2d_6"/>
    </g>
   </g>
   <g id="matplotlib.axis_2">
    <g id="ytick_1">
     <g id="line2d_7"/>
     <g id="text_1">
      <text style="font-size: 9.5px; font-family: 'Roboto'; text-anchor: end; fill: #434a57" x="63.754219" y="46.799732" transform="rotate(-0 63.754219 46.799732)">Opus 5.5</text>
     </g>
    </g>
    <g id="ytick_2">
     <g id="line2d_8"/>
     <g id="text_2">
      <text style="font-size: 9.5px; font-family: 'Roboto'; text-anchor: end; fill: #434a57" x="63.754219" y="71.254845" transform="rotate(-0 63.754219 71.254845)">GPT-5.6 Sol</text>
     </g>
    </g>
    <g id="ytick_3">
     <g id="line2d_9"/>
     <g id="text_3">
      <text style="font-size: 9.5px; font-family: 'Roboto'; text-anchor: end; fill: #434a57" x="63.754219" y="95.709958" transform="rotate(-0 63.754219 95.709958)">GPT-6 Sol</text>
     </g>
    </g>
    <g id="ytick_4">
     <g id="line2d_10"/>
     <g id="text_4">
      <text style="font-size: 9.5px; font-family: 'Roboto'; text-anchor: end; fill: #434a57" x="63.754219" y="120.165071" transform="rotate(-0 63.754219 120.165071)">GLM-5.3 Flash</text>
     </g>
    </g>
    <g id="ytick_5">
     <g id="line2d_11"/>
     <g id="text_5">
      <text style="font-size: 9.5px; font-family: 'Roboto'; text-anchor: end; fill: #434a57" x="63.754219" y="144.620184" transform="rotate(-0 63.754219 144.620184)">GLM-5.3</text>
     </g>
    </g>
    <g id="ytick_6">
     <g id="line2d_12"/>
     <g id="text_6">
      <text style="font-size: 9.5px; font-family: 'Roboto'; fill: #434a57" transform="translate(21.608359 164.547953)">DeepSeek</text>
      <text style="font-size: 9.5px; font-family: 'Roboto'; fill: #434a57" transform="translate(19.334297 175.027641)">V4.1 Flash</text>
     </g>
    </g>
   </g>
   <g id="line2d_13">
    <path d="M 92.770428 177.740354 
L 92.770428 31.009676 
" clip-path="url(#pbc809c0da9)" style="fill: none; stroke: #747d8b; stroke-opacity: 0.6; stroke-width: 0.8; stroke-linecap: square"/>
   </g>
   <g id="line2d_14">
    <path d="M 92.770428 43.237232 
L 115.354506 43.237232 
" clip-path="url(#pbc809c0da9)" style="fill: none; stroke: #d97349; stroke-width: 2.2"/>
   </g>
   <g id="line2d_15">
    <path d="M 92.770428 67.692345 
L 115.354506 67.692345 
" clip-path="url(#pbc809c0da9)" style="fill: none; stroke: #34a77e; stroke-width: 2.2"/>
   </g>
   <g id="line2d_16">
    <path d="M 92.770428 92.147458 
L 106.668322 92.147458 
" clip-path="url(#pbc809c0da9)" style="fill: none; stroke: #1b7653; stroke-width: 2.2"/>
   </g>
   <g id="line2d_17">
    <path d="M 92.770428 116.602571 
L 115.354506 116.602571 
" clip-path="url(#pbc809c0da9)" style="fill: none; stroke: #b47cbb; stroke-width: 2.2"/>
   </g>
   <g id="line2d_18">
    <path d="M 92.770428 141.057684 
L 97.982138 141.057684 
" clip-path="url(#pbc809c0da9)" style="fill: none; stroke: #8d46b9; stroke-width: 2.2"/>
   </g>
   <g id="line2d_19">
    <path d="M 92.770428 165.512797 
L 89.295955 165.512797 
" clip-path="url(#pbc809c0da9)" style="fill: none; stroke: #4b72f4; stroke-width: 2.2"/>
   </g>
   <g id="text_7">
    <text style="font-size: 8px; font-family: 'Roboto'; text-anchor: start; fill: #434a57" x="121.354506" y="45.424732" transform="rotate(-0 121.354506 45.424732)">66.7%</text>
   </g>
   <g id="text_8">
    <text style="font-size: 8px; font-family: 'Roboto'; text-anchor: start; fill: #434a57" x="121.354506" y="69.879845" transform="rotate(-0 121.354506 69.879845)">66.7%</text>
   </g>
   <g id="text_9">
    <text style="font-size: 8px; font-family: 'Roboto'; text-anchor: start; fill: #434a57" x="112.668322" y="94.334958" transform="rotate(-0 112.668322 94.334958)">61.1%</text>
   </g>
   <g id="text_10">
    <text style="font-size: 8px; font-family: 'Roboto'; text-anchor: start; fill: #434a57" x="121.354506" y="118.790071" transform="rotate(-0 121.354506 118.790071)">66.7%</text>
   </g>
   <g id="text_11">
    <text style="font-size: 8px; font-family: 'Roboto'; text-anchor: start; fill: #434a57" x="103.982138" y="143.245184" transform="rotate(-0 103.982138 143.245184)">55.6%</text>
   </g>
   <g id="text_12">
    <text style="font-size: 8px; font-family: 'Roboto'; text-anchor: start; fill: #434a57" x="97.770428" y="167.700297" transform="rotate(-0 97.770428 167.700297)">50.0%</text>
   </g>
   <g id="text_13">
    <text style="font-weight: 700; font-size: 9.5px; font-family: 'Roboto'; text-anchor: start; fill: #20242d" x="67.754219" y="10.005" transform="rotate(-0 67.754219 10.005)">GPT-6 Astra</text>
   </g>
   <g id="text_14">
    <text style="font-size: 8.5px; font-family: 'Roboto'; text-anchor: start; fill: #747d8b" x="67.754219" y="25.614846" transform="rotate(-0 67.754219 25.614846)">18 pools · random 52.2%</text>
   </g>
   <g id="line2d_20">
    <defs>
     <path id="mb5aacb3f03" d="M 0 3 
C 0.795609 3 1.55874 2.683901 2.12132 2.12132 
C 2.683901 1.55874 3 0.795609 3 0 
C 3 -0.795609 2.683901 -1.55874 2.12132 -2.12132 
C 1.55874 -2.683901 0.795609 -3 0 -3 
C -0.795609 -3 -1.55874 -2.683901 -2.12132 -2.12132 
C -2.683901 -1.55874 -3 -0.795609 -3 0 
C -3 0.795609 -2.683901 1.55874 -2.12132 2.12132 
C -1.55874 2.683901 -0.795609 3 0 3 
z
" style="stroke: #000000; stroke-opacity: 0"/>
    </defs>
    <g clip-path="url(#pbc809c0da9)">
     <use xlink:href="#mb5aacb3f03" x="115.354506" y="43.237232" style="fill: #d97349; stroke: #000000; stroke-opacity: 0"/>
    </g>
   </g>
   <g id="line2d_21">
    <defs>
     <path id="me5f68c99b9" d="M 0 3 
C 0.795609 3 1.55874 2.683901 2.12132 2.12132 
C 2.683901 1.55874 3 0.795609 3 0 
C 3 -0.795609 2.683901 -1.55874 2.12132 -2.12132 
C 1.55874 -2.683901 0.795609 -3 0 -3 
C -0.795609 -3 -1.55874 -2.683901 -2.12132 -2.12132 
C -2.683901 -1.55874 -3 -0.795609 -3 0 
C -3 0.795609 -2.683901 1.55874 -2.12132 2.12132 
C -1.55874 2.683901 -0.795609 3 0 3 
z
" style="stroke: #000000; stroke-opacity: 0"/>
    </defs>
    <g clip-path="url(#pbc809c0da9)">
     <use xlink:href="#me5f68c99b9" x="115.354506" y="67.692345" style="fill: #34a77e; stroke: #000000; stroke-opacity: 0"/>
    </g>
   </g>
   <g id="line2d_22">
    <defs>
     <path id="m1faf5956e3" d="M 0 3 
C 0.795609 3 1.55874 2.683901 2.12132 2.12132 
C 2.683901 1.55874 3 0.795609 3 0 
C 3 -0.795609 2.683901 -1.55874 2.12132 -2.12132 
C 1.55874 -2.683901 0.795609 -3 0 -3 
C -0.795609 -3 -1.55874 -2.683901 -2.12132 -2.12132 
C -2.683901 -1.55874 -3 -0.795609 -3 0 
C -3 0.795609 -2.683901 1.55874 -2.12132 2.12132 
C -1.55874 2.683901 -0.795609 3 0 3 
z
" style="stroke: #000000; stroke-opacity: 0"/>
    </defs>
    <g clip-path="url(#pbc809c0da9)">
     <use xlink:href="#m1faf5956e3" x="106.668322" y="92.147458" style="fill: #1b7653; stroke: #000000; stroke-opacity: 0"/>
    </g>
   </g>
   <g id="line2d_23">
    <defs>
     <path id="mf60c636f7e" d="M 0 3 
C 0.795609 3 1.55874 2.683901 2.12132 2.12132 
C 2.683901 1.55874 3 0.795609 3 0 
C 3 -0.795609 2.683901 -1.55874 2.12132 -2.12132 
C 1.55874 -2.683901 0.795609 -3 0 -3 
C -0.795609 -3 -1.55874 -2.683901 -2.12132 -2.12132 
C -2.683901 -1.55874 -3 -0.795609 -3 0 
C -3 0.795609 -2.683901 1.55874 -2.12132 2.12132 
C -1.55874 2.683901 -0.795609 3 0 3 
z
" style="stroke: #000000; stroke-opacity: 0"/>
    </defs>
    <g clip-path="url(#pbc809c0da9)">
     <use xlink:href="#mf60c636f7e" x="115.354506" y="116.602571" style="fill: #b47cbb; stroke: #000000; stroke-opacity: 0"/>
    </g>
   </g>
   <g id="line2d_24">
    <defs>
     <path id="mf125f2235b" d="M 0 3 
C 0.795609 3 1.55874 2.683901 2.12132 2.12132 
C 2.683901 1.55874 3 0.795609 3 0 
C 3 -0.795609 2.683901 -1.55874 2.12132 -2.12132 
C 1.55874 -2.683901 0.795609 -3 0 -3 
C -0.795609 -3 -1.55874 -2.683901 -2.12132 -2.12132 
C -2.683901 -1.55874 -3 -0.795609 -3 0 
C -3 0.795609 -2.683901 1.55874 -2.12132 2.12132 
C -1.55874 2.683901 -0.795609 3 0 3 
z
" style="stroke: #000000; stroke-opacity: 0"/>
    </defs>
    <g clip-path="url(#pbc809c0da9)">
     <use xlink:href="#mf125f2235b" x="97.982138" y="141.057684" style="fill: #8d46b9; stroke: #000000; stroke-opacity: 0"/>
    </g>
   </g>
   <g id="line2d_25">
    <defs>
     <path id="m39185c06c4" d="M 0 3 
C 0.795609 3 1.55874 2.683901 2.12132 2.12132 
C 2.683901 1.55874 3 0.795609 3 0 
C 3 -0.795609 2.683901 -1.55874 2.12132 -2.12132 
C 1.55874 -2.683901 0.795609 -3 0 -3 
C -0.795609 -3 -1.55874 -2.683901 -2.12132 -2.12132 
C -2.683901 -1.55874 -3 -0.795609 -3 0 
C -3 0.795609 -2.683901 1.55874 -2.12132 2.12132 
C -1.55874 2.683901 -0.795609 3 0 3 
z
" style="stroke: #000000; stroke-opacity: 0"/>
    </defs>
    <g clip-path="url(#pbc809c0da9)">
     <use xlink:href="#m39185c06c4" x="89.295955" y="165.512797" style="fill: #4b72f4; stroke: #000000; stroke-opacity: 0"/>
    </g>
   </g>
  </g>
  <g id="axes_2">
   <g id="patch_3">
    <path d="M 173.819536 177.740354 
L 273.884374 177.740354 
L 273.884374 31.009676 
L 173.819536 31.009676 
L 173.819536 177.740354 
z
" style="fill: none"/>
   </g>
   <g id="matplotlib.axis_3">
    <g id="xtick_4">
     <g id="line2d_26">
      <path d="M 198.835746 177.740354 
L 198.835746 31.009676 
" clip-path="url(#p974891db9b)" style="fill: none; stroke: #dfe4e9; stroke-opacity: 0.7; stroke-width: 0.6; stroke-linecap: square"/>
     </g>
     <g id="line2d_27"/>
    </g>
    <g id="xtick_5">
     <g id="line2d_28">
      <path d="M 230.106008 177.740354 
L 230.106008 31.009676 
" clip-path="url(#p974891db9b)" style="fill: none; stroke: #dfe4e9; stroke-opacity: 0.7; stroke-width: 0.6; stroke-linecap: square"/>
     </g>
     <g id="line2d_29"/>
    </g>
    <g id="xtick_6">
     <g id="line2d_30">
      <path d="M 261.37627 177.740354 
L 261.37627 31.009676 
" clip-path="url(#p974891db9b)" style="fill: none; stroke: #dfe4e9; stroke-opacity: 0.7; stroke-width: 0.6; stroke-linecap: square"/>
     </g>
     <g id="line2d_31"/>
    </g>
   </g>
   <g id="matplotlib.axis_4">
    <g id="ytick_7">
     <g id="line2d_32"/>
    </g>
    <g id="ytick_8">
     <g id="line2d_33"/>
    </g>
    <g id="ytick_9">
     <g id="line2d_34"/>
    </g>
    <g id="ytick_10">
     <g id="line2d_35"/>
    </g>
    <g id="ytick_11">
     <g id="line2d_36"/>
    </g>
    <g id="ytick_12">
     <g id="line2d_37"/>
    </g>
   </g>
   <g id="line2d_38">
    <path d="M 198.835746 177.740354 
L 198.835746 31.009676 
" clip-path="url(#p974891db9b)" style="fill: none; stroke: #747d8b; stroke-opacity: 0.6; stroke-width: 0.8; stroke-linecap: square"/>
   </g>
   <g id="line2d_39">
    <path d="M 198.835746 43.237232 
L 235.317718 43.237232 
" clip-path="url(#p974891db9b)" style="fill: none; stroke: #d97349; stroke-width: 2.2"/>
   </g>
   <g id="line2d_40">
    <path d="M 198.835746 67.692345 
L 240.529428 67.692345 
" clip-path="url(#p974891db9b)" style="fill: none; stroke: #34a77e; stroke-width: 2.2"/>
   </g>
   <g id="line2d_41">
    <path d="M 198.835746 92.147458 
L 224.894297 92.147458 
" clip-path="url(#p974891db9b)" style="fill: none; stroke: #1b7653; stroke-width: 2.2"/>
   </g>
   <g id="line2d_42">
    <path d="M 198.835746 116.602571 
L 219.682587 116.602571 
" clip-path="url(#p974891db9b)" style="fill: none; stroke: #b47cbb; stroke-width: 2.2"/>
   </g>
   <g id="line2d_43">
    <path d="M 198.835746 141.057684 
L 204.047456 141.057684 
" clip-path="url(#p974891db9b)" style="fill: none; stroke: #8d46b9; stroke-width: 2.2"/>
   </g>
   <g id="line2d_44">
    <path d="M 198.835746 165.512797 
L 209.259167 165.512797 
" clip-path="url(#p974891db9b)" style="fill: none; stroke: #4b72f4; stroke-width: 2.2"/>
   </g>
   <g id="text_15">
    <text style="font-size: 8px; font-family: 'Roboto'; text-anchor: start; fill: #434a57" x="241.317718" y="45.424732" transform="rotate(-0 241.317718 45.424732)">83.3%</text>
   </g>
   <g id="text_16">
    <text style="font-size: 8px; font-family: 'Roboto'; text-anchor: start; fill: #434a57" x="246.529428" y="69.879845" transform="rotate(-0 246.529428 69.879845)">86.7%</text>
   </g>
   <g id="text_17">
    <text style="font-size: 8px; font-family: 'Roboto'; text-anchor: start; fill: #434a57" x="230.894297" y="94.334958" transform="rotate(-0 230.894297 94.334958)">76.7%</text>
   </g>
   <g id="text_18">
    <text style="font-size: 8px; font-family: 'Roboto'; text-anchor: start; fill: #434a57" x="225.682587" y="118.790071" transform="rotate(-0 225.682587 118.790071)">73.3%</text>
   </g>
   <g id="text_19">
    <text style="font-size: 8px; font-family: 'Roboto'; text-anchor: start; fill: #434a57" x="210.047456" y="143.245184" transform="rotate(-0 210.047456 143.245184)">63.3%</text>
   </g>
   <g id="text_20">
    <text style="font-size: 8px; font-family: 'Roboto'; text-anchor: start; fill: #434a57" x="215.259167" y="167.700297" transform="rotate(-0 215.259167 167.700297)">66.7%</text>
   </g>
   <g id="text_21">
    <text style="font-weight: 700; font-size: 9.5px; font-family: 'Roboto'; text-anchor: start; fill: #20242d" x="173.819536" y="10.005" transform="rotate(-0 173.819536 10.005)">Fable 5.1</text>
   </g>
   <g id="text_22">
    <text style="font-size: 8.5px; font-family: 'Roboto'; text-anchor: start; fill: #747d8b" x="173.819536" y="25.614846" transform="rotate(-0 173.819536 25.614846)">30 pools · random 60.0%</text>
   </g>
   <g id="line2d_45">
    <g clip-path="url(#p974891db9b)">
     <use xlink:href="#mb5aacb3f03" x="235.317718" y="43.237232" style="fill: #d97349; stroke: #000000; stroke-opacity: 0"/>
    </g>
   </g>
   <g id="line2d_46">
    <g clip-path="url(#p974891db9b)">
     <use xlink:href="#me5f68c99b9" x="240.529428" y="67.692345" style="fill: #34a77e; stroke: #000000; stroke-opacity: 0"/>
    </g>
   </g>
   <g id="line2d_47">
    <g clip-path="url(#p974891db9b)">
     <use xlink:href="#m1faf5956e3" x="224.894297" y="92.147458" style="fill: #1b7653; stroke: #000000; stroke-opacity: 0"/>
    </g>
   </g>
   <g id="line2d_48">
    <g clip-path="url(#p974891db9b)">
     <use xlink:href="#mf60c636f7e" x="219.682587" y="116.602571" style="fill: #b47cbb; stroke: #000000; stroke-opacity: 0"/>
    </g>
   </g>
   <g id="line2d_49">
    <g clip-path="url(#p974891db9b)">
     <use xlink:href="#mf125f2235b" x="204.047456" y="141.057684" style="fill: #8d46b9; stroke: #000000; stroke-opacity: 0"/>
    </g>
   </g>
   <g id="line2d_50">
    <g clip-path="url(#p974891db9b)">
     <use xlink:href="#m39185c06c4" x="209.259167" y="165.512797" style="fill: #4b72f4; stroke: #000000; stroke-opacity: 0"/>
    </g>
   </g>
  </g>
  <g id="axes_3">
   <g id="patch_4">
    <path d="M 67.754219 358.80027 
L 167.819056 358.80027 
L 167.819056 212.069592 
L 67.754219 212.069592 
L 67.754219 358.80027 
z
" style="fill: none"/>
   </g>
   <g id="matplotlib.axis_5">
    <g id="xtick_7">
     <g id="line2d_51">
      <path d="M 92.770428 358.80027 
L 92.770428 212.069592 
" clip-path="url(#pb1e9a84c10)" style="fill: none; stroke: #dfe4e9; stroke-opacity: 0.7; stroke-width: 0.6; stroke-linecap: square"/>
     </g>
     <g id="line2d_52"/>
     <g id="text_23">
      <text style="font-size: 8.5px; font-family: 'Roboto'; text-anchor: middle; fill: #747d8b" x="92.770428" y="369.17527" transform="rotate(-0 92.770428 369.17527)">0</text>
     </g>
    </g>
    <g id="xtick_8">
     <g id="line2d_53">
      <path d="M 124.04069 358.80027 
L 124.04069 212.069592 
" clip-path="url(#pb1e9a84c10)" style="fill: none; stroke: #dfe4e9; stroke-opacity: 0.7; stroke-width: 0.6; stroke-linecap: square"/>
     </g>
     <g id="line2d_54"/>
     <g id="text_24">
      <text style="font-size: 8.5px; font-family: 'Roboto'; text-anchor: middle; fill: #747d8b" x="124.04069" y="369.17527" transform="rotate(-0 124.04069 369.17527)">+20</text>
     </g>
    </g>
    <g id="xtick_9">
     <g id="line2d_55">
      <path d="M 155.310952 358.80027 
L 155.310952 212.069592 
" clip-path="url(#pb1e9a84c10)" style="fill: none; stroke: #dfe4e9; stroke-opacity: 0.7; stroke-width: 0.6; stroke-linecap: square"/>
     </g>
     <g id="line2d_56"/>
     <g id="text_25">
      <text style="font-size: 8.5px; font-family: 'Roboto'; text-anchor: middle; fill: #747d8b" x="155.310952" y="369.17527" transform="rotate(-0 155.310952 369.17527)">+40</text>
     </g>
    </g>
   </g>
   <g id="matplotlib.axis_6">
    <g id="ytick_13">
     <g id="line2d_57"/>
     <g id="text_26">
      <text style="font-size: 9.5px; font-family: 'Roboto'; text-anchor: end; fill: #434a57" x="63.754219" y="227.859648" transform="rotate(-0 63.754219 227.859648)">Opus 5.5</text>
     </g>
    </g>
    <g id="ytick_14">
     <g id="line2d_58"/>
     <g id="text_27">
      <text style="font-size: 9.5px; font-family: 'Roboto'; text-anchor: end; fill: #434a57" x="63.754219" y="252.314761" transform="rotate(-0 63.754219 252.314761)">GPT-5.6 Sol</text>
     </g>
    </g>
    <g id="ytick_15">
     <g id="line2d_59"/>
     <g id="text_28">
      <text style="font-size: 9.5px; font-family: 'Roboto'; text-anchor: end; fill: #434a57" x="63.754219" y="276.769874" transform="rotate(-0 63.754219 276.769874)">GPT-6 Sol</text>
     </g>
    </g>
    <g id="ytick_16">
     <g id="line2d_60"/>
     <g id="text_29">
      <text style="font-size: 9.5px; font-family: 'Roboto'; text-anchor: end; fill: #434a57" x="63.754219" y="301.224987" transform="rotate(-0 63.754219 301.224987)">GLM-5.3 Flash</text>
     </g>
    </g>
    <g id="ytick_17">
     <g id="line2d_61"/>
     <g id="text_30">
      <text style="font-size: 9.5px; font-family: 'Roboto'; text-anchor: end; fill: #434a57" x="63.754219" y="325.6801" transform="rotate(-0 63.754219 325.6801)">GLM-5.3</text>
     </g>
    </g>
    <g id="ytick_18">
     <g id="line2d_62"/>
     <g id="text_31">
      <text style="font-size: 9.5px; font-family: 'Roboto'; fill: #434a57" transform="translate(21.608359 345.60787)">DeepSeek</text>
      <text style="font-size: 9.5px; font-family: 'Roboto'; fill: #434a57" transform="translate(19.334297 356.087557)">V4.1 Flash</text>
     </g>
    </g>
   </g>
   <g id="line2d_63">
    <path d="M 92.770428 358.80027 
L 92.770428 212.069592 
" clip-path="url(#pb1e9a84c10)" style="fill: none; stroke: #747d8b; stroke-opacity: 0.6; stroke-width: 0.8; stroke-linecap: square"/>
   </g>
   <g id="line2d_64">
    <path d="M 92.770428 224.297148 
L 134.464111 224.297148 
" clip-path="url(#pb1e9a84c10)" style="fill: none; stroke: #d97349; stroke-width: 2.2"/>
   </g>
   <g id="line2d_65">
    <path d="M 92.770428 248.752261 
L 112.128209 248.752261 
" clip-path="url(#pb1e9a84c10)" style="fill: none; stroke: #34a77e; stroke-width: 2.2"/>
   </g>
   <g id="line2d_66">
    <path d="M 92.770428 273.207374 
L 134.464111 273.207374 
" clip-path="url(#pb1e9a84c10)" style="fill: none; stroke: #1b7653; stroke-width: 2.2"/>
   </g>
   <g id="line2d_67">
    <path d="M 92.770428 297.662487 
L 104.682909 297.662487 
" clip-path="url(#pb1e9a84c10)" style="fill: none; stroke: #b47cbb; stroke-width: 2.2"/>
   </g>
   <g id="line2d_68">
    <path d="M 92.770428 322.1176 
L 112.128209 322.1176 
" clip-path="url(#pb1e9a84c10)" style="fill: none; stroke: #8d46b9; stroke-width: 2.2"/>
   </g>
   <g id="line2d_69">
    <path d="M 92.770428 346.572713 
L 104.682909 346.572713 
" clip-path="url(#pb1e9a84c10)" style="fill: none; stroke: #4b72f4; stroke-width: 2.2"/>
   </g>
   <g id="text_32">
    <text style="font-size: 8px; font-family: 'Roboto'; text-anchor: start; fill: #434a57" x="140.464111" y="226.484648" transform="rotate(-0 140.464111 226.484648)">81.0%</text>
   </g>
   <g id="text_33">
    <text style="font-size: 8px; font-family: 'Roboto'; text-anchor: start; fill: #434a57" x="118.128209" y="250.939761" transform="rotate(-0 118.128209 250.939761)">66.7%</text>
   </g>
   <g id="text_34">
    <text style="font-size: 8px; font-family: 'Roboto'; text-anchor: start; fill: #434a57" x="140.464111" y="275.394874" transform="rotate(-0 140.464111 275.394874)">81.0%</text>
   </g>
   <g id="text_35">
    <text style="font-size: 8px; font-family: 'Roboto'; text-anchor: start; fill: #434a57" x="110.682909" y="299.849987" transform="rotate(-0 110.682909 299.849987)">61.9%</text>
   </g>
   <g id="text_36">
    <text style="font-size: 8px; font-family: 'Roboto'; text-anchor: start; fill: #434a57" x="118.128209" y="324.3051" transform="rotate(-0 118.128209 324.3051)">66.7%</text>
   </g>
   <g id="text_37">
    <text style="font-size: 8px; font-family: 'Roboto'; text-anchor: start; fill: #434a57" x="110.682909" y="348.760213" transform="rotate(-0 110.682909 348.760213)">61.9%</text>
   </g>
   <g id="text_38">
    <text style="font-weight: 700; font-size: 9.5px; font-family: 'Roboto'; text-anchor: start; fill: #20242d" x="67.754219" y="191.064916" transform="rotate(-0 67.754219 191.064916)">GLM-5.3</text>
   </g>
   <g id="text_39">
    <text style="font-size: 8.5px; font-family: 'Roboto'; text-anchor: start; fill: #747d8b" x="67.754219" y="206.674762" transform="rotate(-0 67.754219 206.674762)">21 pools · random 54.3%</text>
   </g>
   <g id="line2d_70">
    <g clip-path="url(#pb1e9a84c10)">
     <use xlink:href="#mb5aacb3f03" x="134.464111" y="224.297148" style="fill: #d97349; stroke: #000000; stroke-opacity: 0"/>
    </g>
   </g>
   <g id="line2d_71">
    <g clip-path="url(#pb1e9a84c10)">
     <use xlink:href="#me5f68c99b9" x="112.128209" y="248.752261" style="fill: #34a77e; stroke: #000000; stroke-opacity: 0"/>
    </g>
   </g>
   <g id="line2d_72">
    <g clip-path="url(#pb1e9a84c10)">
     <use xlink:href="#m1faf5956e3" x="134.464111" y="273.207374" style="fill: #1b7653; stroke: #000000; stroke-opacity: 0"/>
    </g>
   </g>
   <g id="line2d_73">
    <g clip-path="url(#pb1e9a84c10)">
     <use xlink:href="#mf60c636f7e" x="104.682909" y="297.662487" style="fill: #b47cbb; stroke: #000000; stroke-opacity: 0"/>
    </g>
   </g>
   <g id="line2d_74">
    <g clip-path="url(#pb1e9a84c10)">
     <use xlink:href="#mf125f2235b" x="112.128209" y="322.1176" style="fill: #8d46b9; stroke: #000000; stroke-opacity: 0"/>
    </g>
   </g>
   <g id="line2d_75">
    <g clip-path="url(#pb1e9a84c10)">
     <use xlink:href="#m39185c06c4" x="104.682909" y="346.572713" style="fill: #4b72f4; stroke: #000000; stroke-opacity: 0"/>
    </g>
   </g>
  </g>
  <g id="axes_4">
   <g id="patch_5">
    <path d="M 173.819536 358.80027 
L 273.884374 358.80027 
L 273.884374 212.069592 
L 173.819536 212.069592 
L 173.819536 358.80027 
z
" style="fill: none"/>
   </g>
   <g id="matplotlib.axis_7">
    <g id="xtick_10">
     <g id="line2d_76">
      <path d="M 198.835746 358.80027 
L 198.835746 212.069592 
" clip-path="url(#p4472f8ebb5)" style="fill: none; stroke: #dfe4e9; stroke-opacity: 0.7; stroke-width: 0.6; stroke-linecap: square"/>
     </g>
     <g id="line2d_77"/>
     <g id="text_40">
      <text style="font-size: 8.5px; font-family: 'Roboto'; text-anchor: middle; fill: #747d8b" x="198.835746" y="369.17527" transform="rotate(-0 198.835746 369.17527)">0</text>
     </g>
    </g>
    <g id="xtick_11">
     <g id="line2d_78">
      <path d="M 230.106008 358.80027 
L 230.106008 212.069592 
" clip-path="url(#p4472f8ebb5)" style="fill: none; stroke: #dfe4e9; stroke-opacity: 0.7; stroke-width: 0.6; stroke-linecap: square"/>
     </g>
     <g id="line2d_79"/>
     <g id="text_41">
      <text style="font-size: 8.5px; font-family: 'Roboto'; text-anchor: middle; fill: #747d8b" x="230.106008" y="369.17527" transform="rotate(-0 230.106008 369.17527)">+20</text>
     </g>
    </g>
    <g id="xtick_12">
     <g id="line2d_80">
      <path d="M 261.37627 358.80027 
L 261.37627 212.069592 
" clip-path="url(#p4472f8ebb5)" style="fill: none; stroke: #dfe4e9; stroke-opacity: 0.7; stroke-width: 0.6; stroke-linecap: square"/>
     </g>
     <g id="line2d_81"/>
     <g id="text_42">
      <text style="font-size: 8.5px; font-family: 'Roboto'; text-anchor: middle; fill: #747d8b" x="261.37627" y="369.17527" transform="rotate(-0 261.37627 369.17527)">+40</text>
     </g>
    </g>
   </g>
   <g id="matplotlib.axis_8">
    <g id="ytick_19">
     <g id="line2d_82"/>
    </g>
    <g id="ytick_20">
     <g id="line2d_83"/>
    </g>
    <g id="ytick_21">
     <g id="line2d_84"/>
    </g>
    <g id="ytick_22">
     <g id="line2d_85"/>
    </g>
    <g id="ytick_23">
     <g id="line2d_86"/>
    </g>
    <g id="ytick_24">
     <g id="line2d_87"/>
    </g>
   </g>
   <g id="line2d_88">
    <path d="M 198.835746 358.80027 
L 198.835746 212.069592 
" clip-path="url(#p4472f8ebb5)" style="fill: none; stroke: #747d8b; stroke-opacity: 0.6; stroke-width: 0.8; stroke-linecap: square"/>
   </g>
   <g id="line2d_89">
    <path d="M 198.835746 224.297148 
L 244.624344 224.297148 
" clip-path="url(#p4472f8ebb5)" style="fill: none; stroke: #d97349; stroke-width: 2.2"/>
   </g>
   <g id="line2d_90">
    <path d="M 198.835746 248.752261 
L 250.208319 248.752261 
" clip-path="url(#p4472f8ebb5)" style="fill: none; stroke: #34a77e; stroke-width: 2.2"/>
   </g>
   <g id="line2d_91">
    <path d="M 198.835746 273.207374 
L 233.456393 273.207374 
" clip-path="url(#p4472f8ebb5)" style="fill: none; stroke: #1b7653; stroke-width: 2.2"/>
   </g>
   <g id="line2d_92">
    <path d="M 198.835746 297.662487 
L 233.456393 297.662487 
" clip-path="url(#p4472f8ebb5)" style="fill: none; stroke: #b47cbb; stroke-width: 2.2"/>
   </g>
   <g id="line2d_93">
    <path d="M 198.835746 322.1176 
L 216.704467 322.1176 
" clip-path="url(#p4472f8ebb5)" style="fill: none; stroke: #8d46b9; stroke-width: 2.2"/>
   </g>
   <g id="line2d_94">
    <path d="M 198.835746 346.572713 
L 188.78459 346.572713 
" clip-path="url(#p4472f8ebb5)" style="fill: none; stroke: #4b72f4; stroke-width: 2.2"/>
   </g>
   <g id="text_43">
    <text style="font-size: 8px; font-family: 'Roboto'; text-anchor: start; fill: #434a57" x="250.624344" y="226.484648" transform="rotate(-0 250.624344 226.484648)">82.1%</text>
   </g>
   <g id="text_44">
    <text style="font-size: 8px; font-family: 'Roboto'; text-anchor: start; fill: #434a57" x="256.208319" y="250.939761" transform="rotate(-0 256.208319 250.939761)">85.7%</text>
   </g>
   <g id="text_45">
    <text style="font-size: 8px; font-family: 'Roboto'; text-anchor: start; fill: #434a57" x="239.456393" y="275.394874" transform="rotate(-0 239.456393 275.394874)">75.0%</text>
   </g>
   <g id="text_46">
    <text style="font-size: 8px; font-family: 'Roboto'; text-anchor: start; fill: #434a57" x="239.456393" y="299.849987" transform="rotate(-0 239.456393 299.849987)">75.0%</text>
   </g>
   <g id="text_47">
    <text style="font-size: 8px; font-family: 'Roboto'; text-anchor: start; fill: #434a57" x="222.704467" y="324.3051" transform="rotate(-0 222.704467 324.3051)">64.3%</text>
   </g>
   <g id="text_48">
    <text style="font-size: 8px; font-family: 'Roboto'; text-anchor: start; fill: #434a57" x="203.835746" y="348.760213" transform="rotate(-0 203.835746 348.760213)">46.4%</text>
   </g>
   <g id="text_49">
    <text style="font-weight: 700; font-size: 9.5px; font-family: 'Roboto'; text-anchor: start; fill: #20242d" x="173.819536" y="191.064916" transform="rotate(-0 173.819536 191.064916)">GPT-5.6 Sol</text>
   </g>
   <g id="text_50">
    <text style="font-size: 8.5px; font-family: 'Roboto'; text-anchor: start; fill: #747d8b" x="173.819536" y="206.674762" transform="rotate(-0 173.819536 206.674762)">28 pools · random 52.9%</text>
   </g>
   <g id="line2d_95">
    <g clip-path="url(#p4472f8ebb5)">
     <use xlink:href="#mb5aacb3f03" x="244.624344" y="224.297148" style="fill: #d97349; stroke: #000000; stroke-opacity: 0"/>
    </g>
   </g>
   <g id="line2d_96">
    <g clip-path="url(#p4472f8ebb5)">
     <use xlink:href="#me5f68c99b9" x="250.208319" y="248.752261" style="fill: #34a77e; stroke: #000000; stroke-opacity: 0"/>
    </g>
   </g>
   <g id="line2d_97">
    <g clip-path="url(#p4472f8ebb5)">
     <use xlink:href="#m1faf5956e3" x="233.456393" y="273.207374" style="fill: #1b7653; stroke: #000000; stroke-opacity: 0"/>
    </g>
   </g>
   <g id="line2d_98">
    <g clip-path="url(#p4472f8ebb5)">
     <use xlink:href="#mf60c636f7e" x="233.456393" y="297.662487" style="fill: #b47cbb; stroke: #000000; stroke-opacity: 0"/>
    </g>
   </g>
   <g id="line2d_99">
    <g clip-path="url(#p4472f8ebb5)">
     <use xlink:href="#mf125f2235b" x="216.704467" y="322.1176" style="fill: #8d46b9; stroke: #000000; stroke-opacity: 0"/>
    </g>
   </g>
   <g id="line2d_100">
    <g clip-path="url(#p4472f8ebb5)">
     <use xlink:href="#m39185c06c4" x="188.78459" y="346.572713" style="fill: #4b72f4; stroke: #000000; stroke-opacity: 0"/>
    </g>
   </g>
  </g>
  <g id="text_51">
   <text style="font-size: 9px; font-family: 'Roboto'; text-anchor: middle; fill: #434a57" x="140.27976" y="383.652312" transform="rotate(-0 140.27976 383.652312)">Points above a random pick</text>
  </g>
 </g>
 <defs>
  <clipPath id="pbc809c0da9">
   <rect x="67.754219" y="31.009676" width="100.064838" height="146.730678"/>
  </clipPath>
  <clipPath id="p974891db9b">
   <rect x="173.819536" y="31.009676" width="100.064838" height="146.730678"/>
  </clipPath>
  <clipPath id="pb1e9a84c10">
   <rect x="67.754219" y="212.069592" width="100.064838" height="146.730678"/>
  </clipPath>
  <clipPath id="p4472f8ebb5">
   <rect x="173.819536" y="212.069592" width="100.064838" height="146.730678"/>
  </clipPath>
 </defs>
</svg>
