<?xml version="1.0" encoding="utf-8" standalone="no"?>
<!DOCTYPE svg PUBLIC "-//W3C//DTD SVG 1.1//EN"
  "http://www.w3.org/Graphics/SVG/1.1/DTD/svg11.dtd">
<svg xmlns:xlink="http://www.w3.org/1999/xlink" width="286.56pt" height="383.04pt" viewBox="0 0 286.56 383.04" xmlns="http://www.w3.org/2000/svg" version="1.1">
 <metadata>
  <rdf:RDF xmlns:dc="http://purl.org/dc/elements/1.1/" xmlns:cc="http://creativecommons.org/ns#" xmlns:rdf="http://www.w3.org/1999/02/22-rdf-syntax-ns#">
   <cc:Work>
    <dc:type rdf:resource="http://purl.org/dc/dcmitype/StillImage"/>
    <dc:description>Six Single confusion matrices, one per reviewer. Rows are recorded outcomes (79 succeeded, 79 failed runs); columns are Pass and Fail verdicts. Wrong-verdict cells are red, darker for a larger share of the row; right verdicts are gray. Invalid outputs are listed under a matrix and count as wrong.</dc:description>
    <dc:format>image/svg+xml</dc:format>
    <dc:creator>
     <cc:Agent>
      <dc:title>generate_second_life_tb4_figures.py</dc:title>
     </cc:Agent>
    </dc:creator>
   </cc:Work>
  </rdf:RDF>
 </metadata>
 <defs>
  <style type="text/css">*{stroke-linejoin: round; stroke-linecap: butt}</style>
 </defs>
 <g id="figure_1">
  <g id="patch_1">
   <path d="M 0 383.04 
L 286.56 383.04 
L 286.56 0 
L 0 0 
L 0 383.04 
z
" style="fill: none"/>
  </g>
  <g id="axes_1">
   <g id="patch_2">
    <path d="M 5.4 12.24 
L 11.88 12.24 
Q 14.4 12.24 14.4 14.76 
L 14.4 18.936 
Q 14.4 21.456 11.88 21.456 
L 5.4 21.456 
Q 2.88 21.456 2.88 18.936 
L 2.88 14.76 
Q 2.88 12.24 5.4 12.24 
z
" clip-path="url(#pdbae238362)" style="fill: #dfe4e9; opacity: 0.75"/>
   </g>
   <g id="patch_3">
    <path d="M 90.36 12.24 
L 96.84 12.24 
Q 99.36 12.24 99.36 14.76 
L 99.36 18.936 
Q 99.36 21.456 96.84 21.456 
L 90.36 21.456 
Q 87.84 21.456 87.84 18.936 
L 87.84 14.76 
Q 87.84 12.24 90.36 12.24 
z
" clip-path="url(#pdbae238362)" style="fill: #d1392e; opacity: 0.134"/>
   </g>
   <g id="patch_4">
    <path d="M 104.04 12.24 
L 110.52 12.24 
Q 113.04 12.24 113.04 14.76 
L 113.04 18.936 
Q 113.04 21.456 110.52 21.456 
L 104.04 21.456 
Q 101.52 21.456 101.52 18.936 
L 101.52 14.76 
Q 101.52 12.24 104.04 12.24 
z
" clip-path="url(#pdbae238362)" style="fill: #d1392e; opacity: 0.282"/>
   </g>
   <g id="patch_5">
    <path d="M 117.72 12.24 
L 124.2 12.24 
Q 126.72 12.24 126.72 14.76 
L 126.72 18.936 
Q 126.72 21.456 124.2 21.456 
L 117.72 21.456 
Q 115.2 21.456 115.2 18.936 
L 115.2 14.76 
Q 115.2 12.24 117.72 12.24 
z
" clip-path="url(#pdbae238362)" style="fill: #d1392e; opacity: 0.43"/>
   </g>
   <g id="patch_6">
    <path d="M 131.4 12.24 
L 137.88 12.24 
Q 140.4 12.24 140.4 14.76 
L 140.4 18.936 
Q 140.4 21.456 137.88 21.456 
L 131.4 21.456 
Q 128.88 21.456 128.88 18.936 
L 128.88 14.76 
Q 128.88 12.24 131.4 12.24 
z
" clip-path="url(#pdbae238362)" style="fill: #d1392e; opacity: 0.578"/>
   </g>
   <g id="patch_7">
    <path d="M 145.08 12.24 
L 151.56 12.24 
Q 154.08 12.24 154.08 14.76 
L 154.08 18.936 
Q 154.08 21.456 151.56 21.456 
L 145.08 21.456 
Q 142.56 21.456 142.56 18.936 
L 142.56 14.76 
Q 142.56 12.24 145.08 12.24 
z
" clip-path="url(#pdbae238362)" style="fill: #d1392e; opacity: 0.726"/>
   </g>
   <g id="patch_8">
    <path d="M 60.12 66.96 
L 106.02 66.96 
Q 108.54 66.96 108.54 69.48 
L 108.54 94.68 
Q 108.54 97.2 106.02 97.2 
L 60.12 97.2 
Q 57.6 97.2 57.6 94.68 
L 57.6 69.48 
Q 57.6 66.96 60.12 66.96 
z
" clip-path="url(#pdbae238362)" style="fill: #dfe4e9; opacity: 0.75"/>
   </g>
   <g id="patch_9">
    <path d="M 113.94 66.96 
L 159.84 66.96 
Q 162.36 66.96 162.36 69.48 
L 162.36 94.68 
Q 162.36 97.2 159.84 97.2 
L 113.94 97.2 
Q 111.42 97.2 111.42 94.68 
L 111.42 69.48 
Q 111.42 66.96 113.94 66.96 
z
" clip-path="url(#pdbae238362)" style="fill: #d1392e; opacity: 0.237975"/>
   </g>
   <g id="patch_10">
    <path d="M 60.12 100.08 
L 106.02 100.08 
Q 108.54 100.08 108.54 102.6 
L 108.54 127.8 
Q 108.54 130.32 106.02 130.32 
L 60.12 130.32 
Q 57.6 130.32 57.6 127.8 
L 57.6 102.6 
Q 57.6 100.08 60.12 100.08 
z
" clip-path="url(#pdbae238362)" style="fill: #d1392e; opacity: 0.444051"/>
   </g>
   <g id="patch_11">
    <path d="M 113.94 100.08 
L 159.84 100.08 
Q 162.36 100.08 162.36 102.6 
L 162.36 127.8 
Q 162.36 130.32 159.84 130.32 
L 113.94 130.32 
Q 111.42 130.32 111.42 127.8 
L 111.42 102.6 
Q 111.42 100.08 113.94 100.08 
z
" clip-path="url(#pdbae238362)" style="fill: #dfe4e9; opacity: 0.75"/>
   </g>
   <g id="patch_12">
    <path d="M 180 66.96 
L 225.9 66.96 
Q 228.42 66.96 228.42 69.48 
L 228.42 94.68 
Q 228.42 97.2 225.9 97.2 
L 180 97.2 
Q 177.48 97.2 177.48 94.68 
L 177.48 69.48 
Q 177.48 66.96 180 66.96 
z
" clip-path="url(#pdbae238362)" style="fill: #dfe4e9; opacity: 0.75"/>
   </g>
   <g id="patch_13">
    <path d="M 233.82 66.96 
L 279.72 66.96 
Q 282.24 66.96 282.24 69.48 
L 282.24 94.68 
Q 282.24 97.2 279.72 97.2 
L 233.82 97.2 
Q 231.3 97.2 231.3 94.68 
L 231.3 69.48 
Q 231.3 66.96 233.82 66.96 
z
" clip-path="url(#pdbae238362)" style="fill: #d1392e; opacity: 0.191139"/>
   </g>
   <g id="patch_14">
    <path d="M 180 100.08 
L 225.9 100.08 
Q 228.42 100.08 228.42 102.6 
L 228.42 127.8 
Q 228.42 130.32 225.9 130.32 
L 180 130.32 
Q 177.48 130.32 177.48 127.8 
L 177.48 102.6 
Q 177.48 100.08 180 100.08 
z
" clip-path="url(#pdbae238362)" style="fill: #d1392e; opacity: 0.528354"/>
   </g>
   <g id="patch_15">
    <path d="M 233.82 100.08 
L 279.72 100.08 
Q 282.24 100.08 282.24 102.6 
L 282.24 127.8 
Q 282.24 130.32 279.72 130.32 
L 233.82 130.32 
Q 231.3 130.32 231.3 127.8 
L 231.3 102.6 
Q 231.3 100.08 233.82 100.08 
z
" clip-path="url(#pdbae238362)" style="fill: #dfe4e9; opacity: 0.75"/>
   </g>
   <g id="patch_16">
    <path d="M 60.12 185.04 
L 106.02 185.04 
Q 108.54 185.04 108.54 187.56 
L 108.54 212.76 
Q 108.54 215.28 106.02 215.28 
L 60.12 215.28 
Q 57.6 215.28 57.6 212.76 
L 57.6 187.56 
Q 57.6 185.04 60.12 185.04 
z
" clip-path="url(#pdbae238362)" style="fill: #dfe4e9; opacity: 0.75"/>
   </g>
   <g id="patch_17">
    <path d="M 113.94 185.04 
L 159.84 185.04 
Q 162.36 185.04 162.36 187.56 
L 162.36 212.76 
Q 162.36 215.28 159.84 215.28 
L 113.94 215.28 
Q 111.42 215.28 111.42 212.76 
L 111.42 187.56 
Q 111.42 185.04 113.94 185.04 
z
" clip-path="url(#pdbae238362)" style="fill: #d1392e; opacity: 0.266076"/>
   </g>
   <g id="patch_18">
    <path d="M 60.12 218.16 
L 106.02 218.16 
Q 108.54 218.16 108.54 220.68 
L 108.54 245.88 
Q 108.54 248.4 106.02 248.4 
L 60.12 248.4 
Q 57.6 248.4 57.6 245.88 
L 57.6 220.68 
Q 57.6 218.16 60.12 218.16 
z
" clip-path="url(#pdbae238362)" style="fill: #d1392e; opacity: 0.472152"/>
   </g>
   <g id="patch_19">
    <path d="M 113.94 218.16 
L 159.84 218.16 
Q 162.36 218.16 162.36 220.68 
L 162.36 245.88 
Q 162.36 248.4 159.84 248.4 
L 113.94 248.4 
Q 111.42 248.4 111.42 245.88 
L 111.42 220.68 
Q 111.42 218.16 113.94 218.16 
z
" clip-path="url(#pdbae238362)" style="fill: #dfe4e9; opacity: 0.75"/>
   </g>
   <g id="patch_20">
    <path d="M 180 185.04 
L 225.9 185.04 
Q 228.42 185.04 228.42 187.56 
L 228.42 212.76 
Q 228.42 215.28 225.9 215.28 
L 180 215.28 
Q 177.48 215.28 177.48 212.76 
L 177.48 187.56 
Q 177.48 185.04 180 185.04 
z
" clip-path="url(#pdbae238362)" style="fill: #dfe4e9; opacity: 0.75"/>
   </g>
   <g id="patch_21">
    <path d="M 233.82 185.04 
L 279.72 185.04 
Q 282.24 185.04 282.24 187.56 
L 282.24 212.76 
Q 282.24 215.28 279.72 215.28 
L 233.82 215.28 
Q 231.3 215.28 231.3 212.76 
L 231.3 187.56 
Q 231.3 185.04 233.82 185.04 
z
" clip-path="url(#pdbae238362)" style="fill: #d1392e; opacity: 0.06"/>
   </g>
   <g id="patch_22">
    <path d="M 180 218.16 
L 225.9 218.16 
Q 228.42 218.16 228.42 220.68 
L 228.42 245.88 
Q 228.42 248.4 225.9 248.4 
L 180 248.4 
Q 177.48 248.4 177.48 245.88 
L 177.48 220.68 
Q 177.48 218.16 180 218.16 
z
" clip-path="url(#pdbae238362)" style="fill: #d1392e; opacity: 0.706329"/>
   </g>
   <g id="patch_23">
    <path d="M 233.82 218.16 
L 279.72 218.16 
Q 282.24 218.16 282.24 220.68 
L 282.24 245.88 
Q 282.24 248.4 279.72 248.4 
L 233.82 248.4 
Q 231.3 248.4 231.3 245.88 
L 231.3 220.68 
Q 231.3 218.16 233.82 218.16 
z
" clip-path="url(#pdbae238362)" style="fill: #dfe4e9; opacity: 0.75"/>
   </g>
   <g id="patch_24">
    <path d="M 60.12 303.12 
L 106.02 303.12 
Q 108.54 303.12 108.54 305.64 
L 108.54 330.84 
Q 108.54 333.36 106.02 333.36 
L 60.12 333.36 
Q 57.6 333.36 57.6 330.84 
L 57.6 305.64 
Q 57.6 303.12 60.12 303.12 
z
" clip-path="url(#pdbae238362)" style="fill: #dfe4e9; opacity: 0.75"/>
   </g>
   <g id="patch_25">
    <path d="M 113.94 303.12 
L 159.84 303.12 
Q 162.36 303.12 162.36 305.64 
L 162.36 330.84 
Q 162.36 333.36 159.84 333.36 
L 113.94 333.36 
Q 111.42 333.36 111.42 330.84 
L 111.42 305.64 
Q 111.42 303.12 113.94 303.12 
z
" clip-path="url(#pdbae238362)" style="fill: #d1392e; opacity: 0.06"/>
   </g>
   <g id="patch_26">
    <path d="M 60.12 336.24 
L 106.02 336.24 
Q 108.54 336.24 108.54 338.76 
L 108.54 363.96 
Q 108.54 366.48 106.02 366.48 
L 60.12 366.48 
Q 57.6 366.48 57.6 363.96 
L 57.6 338.76 
Q 57.6 336.24 60.12 336.24 
z
" clip-path="url(#pdbae238362)" style="fill: #d1392e; opacity: 0.725063"/>
   </g>
   <g id="patch_27">
    <path d="M 113.94 336.24 
L 159.84 336.24 
Q 162.36 336.24 162.36 338.76 
L 162.36 363.96 
Q 162.36 366.48 159.84 366.48 
L 113.94 366.48 
Q 111.42 366.48 111.42 363.96 
L 111.42 338.76 
Q 111.42 336.24 113.94 336.24 
z
" clip-path="url(#pdbae238362)" style="fill: #dfe4e9; opacity: 0.75"/>
   </g>
   <g id="patch_28">
    <path d="M 180 303.12 
L 225.9 303.12 
Q 228.42 303.12 228.42 305.64 
L 228.42 330.84 
Q 228.42 333.36 225.9 333.36 
L 180 333.36 
Q 177.48 333.36 177.48 330.84 
L 177.48 305.64 
Q 177.48 303.12 180 303.12 
z
" clip-path="url(#pdbae238362)" style="fill: #dfe4e9; opacity: 0.75"/>
   </g>
   <g id="patch_29">
    <path d="M 233.82 303.12 
L 279.72 303.12 
Q 282.24 303.12 282.24 305.64 
L 282.24 330.84 
Q 282.24 333.36 279.72 333.36 
L 233.82 333.36 
Q 231.3 333.36 231.3 330.84 
L 231.3 305.64 
Q 231.3 303.12 233.82 303.12 
z
" clip-path="url(#pdbae238362)" style="fill: #d1392e; opacity: 0.294177"/>
   </g>
   <g id="patch_30">
    <path d="M 180 336.24 
L 225.9 336.24 
Q 228.42 336.24 228.42 338.76 
L 228.42 363.96 
Q 228.42 366.48 225.9 366.48 
L 180 366.48 
Q 177.48 366.48 177.48 363.96 
L 177.48 338.76 
Q 177.48 336.24 180 336.24 
z
" clip-path="url(#pdbae238362)" style="fill: #d1392e; opacity: 0.481519"/>
   </g>
   <g id="patch_31">
    <path d="M 233.82 336.24 
L 279.72 336.24 
Q 282.24 336.24 282.24 338.76 
L 282.24 363.96 
Q 282.24 366.48 279.72 366.48 
L 233.82 366.48 
Q 231.3 366.48 231.3 363.96 
L 231.3 338.76 
Q 231.3 336.24 233.82 336.24 
z
" clip-path="url(#pdbae238362)" style="fill: #dfe4e9; opacity: 0.75"/>
   </g>
   <g id="text_1">
    <text style="font-size: 7.5px; font-family: 'Roboto'; text-anchor: start; fill: #434a57" x="19.44" y="18.880617" transform="rotate(-0 19.44 18.880617)">Right verdict</text>
   </g>
   <g id="text_2">
    <text style="font-size: 7.5px; font-family: 'Roboto'; fill: #434a57" transform="translate(159.12 14.884523)">Wrong verdict,</text>
    <text style="font-size: 7.5px; font-family: 'Roboto'; fill: #434a57" transform="translate(159.12 22.913039)">darker = more of the row</text>
   </g>
   <g id="text_3">
    <text style="font-weight: 700; font-size: 9px; font-family: 'Roboto'; text-anchor: start; fill: #20242d" x="57.6" y="43.680937" transform="rotate(-0 57.6 43.680937)">Opus 5.5</text>
   </g>
   <g id="text_4">
    <text style="font-size: 7.5px; font-family: 'Roboto'; text-anchor: middle; fill: #747d8b" x="83.07" y="59.632617" transform="rotate(-0 83.07 59.632617)">Judged pass</text>
   </g>
   <g id="text_5">
    <text style="font-size: 7.5px; font-family: 'Roboto'; text-anchor: middle; fill: #747d8b" x="136.89" y="59.671289" transform="rotate(-0 136.89 59.671289)">Judged fail</text>
   </g>
   <g id="text_6">
    <text style="font-size: 9.5px; font-family: 'Roboto'; text-anchor: middle; fill: #434a57" x="83.07" y="82.359256" transform="rotate(-0 83.07 82.359256)">75.9%</text>
   </g>
   <g id="text_7">
    <text style="font-size: 7px; font-family: 'Roboto'; text-anchor: middle; fill: #434a57" x="83.07" y="92.274062" transform="rotate(-0 83.07 92.274062)">60 of 79</text>
   </g>
   <g id="text_8">
    <text style="font-weight: 700; font-size: 9.5px; font-family: 'Roboto'; text-anchor: middle; fill: #20242d" x="136.89" y="82.359256" transform="rotate(-0 136.89 82.359256)">24.1%</text>
   </g>
   <g id="text_9">
    <text style="font-size: 7px; font-family: 'Roboto'; text-anchor: middle; fill: #20242d" x="136.89" y="92.274062" transform="rotate(-0 136.89 92.274062)">19 of 79</text>
   </g>
   <g id="text_10">
    <text style="font-size: 8.5px; font-family: 'Roboto'; text-anchor: end; fill: #434a57" x="50.4" y="81.092219" transform="rotate(-0 50.4 81.092219)">Succeeded</text>
   </g>
   <g id="text_11">
    <text style="font-size: 7px; font-family: 'Roboto'; text-anchor: end; fill: #747d8b" x="50.4" y="91.280462" transform="rotate(-0 50.4 91.280462)">79 runs</text>
   </g>
   <g id="text_12">
    <text style="font-weight: 700; font-size: 9.5px; font-family: 'Roboto'; text-anchor: middle; fill: #20242d" x="83.07" y="115.479256" transform="rotate(-0 83.07 115.479256)">51.9%</text>
   </g>
   <g id="text_13">
    <text style="font-size: 7px; font-family: 'Roboto'; text-anchor: middle; fill: #20242d" x="83.07" y="125.394062" transform="rotate(-0 83.07 125.394062)">41 of 79</text>
   </g>
   <g id="text_14">
    <text style="font-size: 9.5px; font-family: 'Roboto'; text-anchor: middle; fill: #434a57" x="136.89" y="115.479256" transform="rotate(-0 136.89 115.479256)">48.1%</text>
   </g>
   <g id="text_15">
    <text style="font-size: 7px; font-family: 'Roboto'; text-anchor: middle; fill: #434a57" x="136.89" y="125.394062" transform="rotate(-0 136.89 125.394062)">38 of 79</text>
   </g>
   <g id="text_16">
    <text style="font-size: 8.5px; font-family: 'Roboto'; text-anchor: end; fill: #434a57" x="50.4" y="114.212219" transform="rotate(-0 50.4 114.212219)">Failed</text>
   </g>
   <g id="text_17">
    <text style="font-size: 7px; font-family: 'Roboto'; text-anchor: end; fill: #747d8b" x="50.4" y="124.400463" transform="rotate(-0 50.4 124.400463)">79 runs</text>
   </g>
   <g id="text_18">
    <text style="font-weight: 700; font-size: 9px; font-family: 'Roboto'; text-anchor: start; fill: #20242d" x="177.48" y="43.680937" transform="rotate(-0 177.48 43.680937)">GPT-5.6 Sol</text>
   </g>
   <g id="text_19">
    <text style="font-size: 7.5px; font-family: 'Roboto'; text-anchor: middle; fill: #747d8b" x="202.95" y="59.632617" transform="rotate(-0 202.95 59.632617)">Judged pass</text>
   </g>
   <g id="text_20">
    <text style="font-size: 7.5px; font-family: 'Roboto'; text-anchor: middle; fill: #747d8b" x="256.77" y="59.671289" transform="rotate(-0 256.77 59.671289)">Judged fail</text>
   </g>
   <g id="text_21">
    <text style="font-size: 9.5px; font-family: 'Roboto'; text-anchor: middle; fill: #434a57" x="202.95" y="82.359256" transform="rotate(-0 202.95 82.359256)">82.3%</text>
   </g>
   <g id="text_22">
    <text style="font-size: 7px; font-family: 'Roboto'; text-anchor: middle; fill: #434a57" x="202.95" y="92.274062" transform="rotate(-0 202.95 92.274062)">65 of 79</text>
   </g>
   <g id="text_23">
    <text style="font-weight: 700; font-size: 9.5px; font-family: 'Roboto'; text-anchor: middle; fill: #20242d" x="256.77" y="82.359256" transform="rotate(-0 256.77 82.359256)">17.7%</text>
   </g>
   <g id="text_24">
    <text style="font-size: 7px; font-family: 'Roboto'; text-anchor: middle; fill: #20242d" x="256.77" y="92.274062" transform="rotate(-0 256.77 92.274062)">14 of 79</text>
   </g>
   <g id="text_25">
    <text style="font-weight: 700; font-size: 9.5px; font-family: 'Roboto'; text-anchor: middle; fill: #20242d" x="202.95" y="115.479256" transform="rotate(-0 202.95 115.479256)">63.3%</text>
   </g>
   <g id="text_26">
    <text style="font-size: 7px; font-family: 'Roboto'; text-anchor: middle; fill: #20242d" x="202.95" y="125.394062" transform="rotate(-0 202.95 125.394062)">50 of 79</text>
   </g>
   <g id="text_27">
    <text style="font-size: 9.5px; font-family: 'Roboto'; text-anchor: middle; fill: #434a57" x="256.77" y="115.479256" transform="rotate(-0 256.77 115.479256)">36.7%</text>
   </g>
   <g id="text_28">
    <text style="font-size: 7px; font-family: 'Roboto'; text-anchor: middle; fill: #434a57" x="256.77" y="125.394062" transform="rotate(-0 256.77 125.394062)">29 of 79</text>
   </g>
   <g id="text_29">
    <text style="font-weight: 700; font-size: 9px; font-family: 'Roboto'; text-anchor: start; fill: #20242d" x="57.6" y="161.760937" transform="rotate(-0 57.6 161.760937)">GPT-6 Sol</text>
   </g>
   <g id="text_30">
    <text style="font-size: 7.5px; font-family: 'Roboto'; text-anchor: middle; fill: #747d8b" x="83.07" y="177.712617" transform="rotate(-0 83.07 177.712617)">Judged pass</text>
   </g>
   <g id="text_31">
    <text style="font-size: 7.5px; font-family: 'Roboto'; text-anchor: middle; fill: #747d8b" x="136.89" y="177.751289" transform="rotate(-0 136.89 177.751289)">Judged fail</text>
   </g>
   <g id="text_32">
    <text style="font-size: 9.5px; font-family: 'Roboto'; text-anchor: middle; fill: #434a57" x="83.07" y="200.439256" transform="rotate(-0 83.07 200.439256)">72.2%</text>
   </g>
   <g id="text_33">
    <text style="font-size: 7px; font-family: 'Roboto'; text-anchor: middle; fill: #434a57" x="83.07" y="210.354063" transform="rotate(-0 83.07 210.354063)">57 of 79</text>
   </g>
   <g id="text_34">
    <text style="font-weight: 700; font-size: 9.5px; font-family: 'Roboto'; text-anchor: middle; fill: #20242d" x="136.89" y="200.439256" transform="rotate(-0 136.89 200.439256)">27.8%</text>
   </g>
   <g id="text_35">
    <text style="font-size: 7px; font-family: 'Roboto'; text-anchor: middle; fill: #20242d" x="136.89" y="210.354063" transform="rotate(-0 136.89 210.354063)">22 of 79</text>
   </g>
   <g id="text_36">
    <text style="font-size: 8.5px; font-family: 'Roboto'; text-anchor: end; fill: #434a57" x="50.4" y="199.172219" transform="rotate(-0 50.4 199.172219)">Succeeded</text>
   </g>
   <g id="text_37">
    <text style="font-size: 7px; font-family: 'Roboto'; text-anchor: end; fill: #747d8b" x="50.4" y="209.360463" transform="rotate(-0 50.4 209.360463)">79 runs</text>
   </g>
   <g id="text_38">
    <text style="font-weight: 700; font-size: 9.5px; font-family: 'Roboto'; text-anchor: middle; fill: #20242d" x="83.07" y="233.559256" transform="rotate(-0 83.07 233.559256)">55.7%</text>
   </g>
   <g id="text_39">
    <text style="font-size: 7px; font-family: 'Roboto'; text-anchor: middle; fill: #20242d" x="83.07" y="243.474063" transform="rotate(-0 83.07 243.474063)">44 of 79</text>
   </g>
   <g id="text_40">
    <text style="font-size: 9.5px; font-family: 'Roboto'; text-anchor: middle; fill: #434a57" x="136.89" y="233.559256" transform="rotate(-0 136.89 233.559256)">44.3%</text>
   </g>
   <g id="text_41">
    <text style="font-size: 7px; font-family: 'Roboto'; text-anchor: middle; fill: #434a57" x="136.89" y="243.474063" transform="rotate(-0 136.89 243.474063)">35 of 79</text>
   </g>
   <g id="text_42">
    <text style="font-size: 8.5px; font-family: 'Roboto'; text-anchor: end; fill: #434a57" x="50.4" y="232.292219" transform="rotate(-0 50.4 232.292219)">Failed</text>
   </g>
   <g id="text_43">
    <text style="font-size: 7px; font-family: 'Roboto'; text-anchor: end; fill: #747d8b" x="50.4" y="242.480463" transform="rotate(-0 50.4 242.480463)">79 runs</text>
   </g>
   <g id="text_44">
    <text style="font-weight: 700; font-size: 9px; font-family: 'Roboto'; text-anchor: start; fill: #20242d" x="177.48" y="161.760937" transform="rotate(-0 177.48 161.760937)">GLM-5.3 Flash</text>
   </g>
   <g id="text_45">
    <text style="font-size: 7.5px; font-family: 'Roboto'; text-anchor: middle; fill: #747d8b" x="202.95" y="177.712617" transform="rotate(-0 202.95 177.712617)">Judged pass</text>
   </g>
   <g id="text_46">
    <text style="font-size: 7.5px; font-family: 'Roboto'; text-anchor: middle; fill: #747d8b" x="256.77" y="177.751289" transform="rotate(-0 256.77 177.751289)">Judged fail</text>
   </g>
   <g id="text_47">
    <text style="font-size: 9.5px; font-family: 'Roboto'; text-anchor: middle; fill: #434a57" x="202.95" y="200.439256" transform="rotate(-0 202.95 200.439256)">100.0%</text>
   </g>
   <g id="text_48">
    <text style="font-size: 7px; font-family: 'Roboto'; text-anchor: middle; fill: #434a57" x="202.95" y="210.354063" transform="rotate(-0 202.95 210.354063)">79 of 79</text>
   </g>
   <g id="text_49">
    <text style="font-weight: 700; font-size: 9.5px; font-family: 'Roboto'; text-anchor: middle; fill: #20242d" x="256.77" y="200.439256" transform="rotate(-0 256.77 200.439256)">0.0%</text>
   </g>
   <g id="text_50">
    <text style="font-size: 7px; font-family: 'Roboto'; text-anchor: middle; fill: #20242d" x="256.77" y="210.354063" transform="rotate(-0 256.77 210.354063)">0 of 79</text>
   </g>
   <g id="text_51">
    <text style="font-weight: 700; font-size: 9.5px; font-family: 'Roboto'; text-anchor: middle; fill: #20242d" x="202.95" y="233.559256" transform="rotate(-0 202.95 233.559256)">87.3%</text>
   </g>
   <g id="text_52">
    <text style="font-size: 7px; font-family: 'Roboto'; text-anchor: middle; fill: #20242d" x="202.95" y="243.474063" transform="rotate(-0 202.95 243.474063)">69 of 79</text>
   </g>
   <g id="text_53">
    <text style="font-size: 9.5px; font-family: 'Roboto'; text-anchor: middle; fill: #434a57" x="256.77" y="233.559256" transform="rotate(-0 256.77 233.559256)">11.4%</text>
   </g>
   <g id="text_54">
    <text style="font-size: 7px; font-family: 'Roboto'; text-anchor: middle; fill: #434a57" x="256.77" y="243.474063" transform="rotate(-0 256.77 243.474063)">9 of 79</text>
   </g>
   <g id="text_55">
    <text style="font-size: 7px; font-family: 'Roboto'; text-anchor: start; fill: #747d8b" x="177.48" y="257.874063" transform="rotate(-0 177.48 257.874063)">Invalid: 1 failed</text>
   </g>
   <g id="text_56">
    <text style="font-weight: 700; font-size: 9px; font-family: 'Roboto'; text-anchor: start; fill: #20242d" x="57.6" y="279.840937" transform="rotate(-0 57.6 279.840937)">GLM-5.3</text>
   </g>
   <g id="text_57">
    <text style="font-size: 7.5px; font-family: 'Roboto'; text-anchor: middle; fill: #747d8b" x="83.07" y="295.792617" transform="rotate(-0 83.07 295.792617)">Judged pass</text>
   </g>
   <g id="text_58">
    <text style="font-size: 7.5px; font-family: 'Roboto'; text-anchor: middle; fill: #747d8b" x="136.89" y="295.831289" transform="rotate(-0 136.89 295.831289)">Judged fail</text>
   </g>
   <g id="text_59">
    <text style="font-size: 9.5px; font-family: 'Roboto'; text-anchor: middle; fill: #434a57" x="83.07" y="318.519256" transform="rotate(-0 83.07 318.519256)">98.7%</text>
   </g>
   <g id="text_60">
    <text style="font-size: 7px; font-family: 'Roboto'; text-anchor: middle; fill: #434a57" x="83.07" y="328.434062" transform="rotate(-0 83.07 328.434062)">78 of 79</text>
   </g>
   <g id="text_61">
    <text style="font-weight: 700; font-size: 9.5px; font-family: 'Roboto'; text-anchor: middle; fill: #20242d" x="136.89" y="318.519256" transform="rotate(-0 136.89 318.519256)">0.0%</text>
   </g>
   <g id="text_62">
    <text style="font-size: 7px; font-family: 'Roboto'; text-anchor: middle; fill: #20242d" x="136.89" y="328.434062" transform="rotate(-0 136.89 328.434062)">0 of 79</text>
   </g>
   <g id="text_63">
    <text style="font-size: 8.5px; font-family: 'Roboto'; text-anchor: end; fill: #434a57" x="50.4" y="317.252219" transform="rotate(-0 50.4 317.252219)">Succeeded</text>
   </g>
   <g id="text_64">
    <text style="font-size: 7px; font-family: 'Roboto'; text-anchor: end; fill: #747d8b" x="50.4" y="327.440463" transform="rotate(-0 50.4 327.440463)">79 runs</text>
   </g>
   <g id="text_65">
    <text style="font-weight: 700; font-size: 9.5px; font-family: 'Roboto'; text-anchor: middle; fill: #20242d" x="83.07" y="351.639256" transform="rotate(-0 83.07 351.639256)">89.9%</text>
   </g>
   <g id="text_66">
    <text style="font-size: 7px; font-family: 'Roboto'; text-anchor: middle; fill: #20242d" x="83.07" y="361.554062" transform="rotate(-0 83.07 361.554062)">71 of 79</text>
   </g>
   <g id="text_67">
    <text style="font-size: 9.5px; font-family: 'Roboto'; text-anchor: middle; fill: #434a57" x="136.89" y="351.639256" transform="rotate(-0 136.89 351.639256)">10.1%</text>
   </g>
   <g id="text_68">
    <text style="font-size: 7px; font-family: 'Roboto'; text-anchor: middle; fill: #434a57" x="136.89" y="361.554062" transform="rotate(-0 136.89 361.554062)">8 of 79</text>
   </g>
   <g id="text_69">
    <text style="font-size: 8.5px; font-family: 'Roboto'; text-anchor: end; fill: #434a57" x="50.4" y="350.372219" transform="rotate(-0 50.4 350.372219)">Failed</text>
   </g>
   <g id="text_70">
    <text style="font-size: 7px; font-family: 'Roboto'; text-anchor: end; fill: #747d8b" x="50.4" y="360.560463" transform="rotate(-0 50.4 360.560463)">79 runs</text>
   </g>
   <g id="text_71">
    <text style="font-size: 7px; font-family: 'Roboto'; text-anchor: start; fill: #747d8b" x="57.6" y="375.954063" transform="rotate(-0 57.6 375.954063)">Invalid: 1 succeeded</text>
   </g>
   <g id="text_72">
    <text style="font-weight: 700; font-size: 9px; font-family: 'Roboto'; text-anchor: start; fill: #20242d" x="177.48" y="279.840937" transform="rotate(-0 177.48 279.840937)">DeepSeek V4.1 Flash</text>
   </g>
   <g id="text_73">
    <text style="font-size: 7.5px; font-family: 'Roboto'; text-anchor: middle; fill: #747d8b" x="202.95" y="295.792617" transform="rotate(-0 202.95 295.792617)">Judged pass</text>
   </g>
   <g id="text_74">
    <text style="font-size: 7.5px; font-family: 'Roboto'; text-anchor: middle; fill: #747d8b" x="256.77" y="295.831289" transform="rotate(-0 256.77 295.831289)">Judged fail</text>
   </g>
   <g id="text_75">
    <text style="font-size: 9.5px; font-family: 'Roboto'; text-anchor: middle; fill: #434a57" x="202.95" y="318.519256" transform="rotate(-0 202.95 318.519256)">64.6%</text>
   </g>
   <g id="text_76">
    <text style="font-size: 7px; font-family: 'Roboto'; text-anchor: middle; fill: #434a57" x="202.95" y="328.434062" transform="rotate(-0 202.95 328.434062)">51 of 79</text>
   </g>
   <g id="text_77">
    <text style="font-weight: 700; font-size: 9.5px; font-family: 'Roboto'; text-anchor: middle; fill: #20242d" x="256.77" y="318.519256" transform="rotate(-0 256.77 318.519256)">31.6%</text>
   </g>
   <g id="text_78">
    <text style="font-size: 7px; font-family: 'Roboto'; text-anchor: middle; fill: #20242d" x="256.77" y="328.434062" transform="rotate(-0 256.77 328.434062)">25 of 79</text>
   </g>
   <g id="text_79">
    <text style="font-weight: 700; font-size: 9.5px; font-family: 'Roboto'; text-anchor: middle; fill: #20242d" x="202.95" y="351.639256" transform="rotate(-0 202.95 351.639256)">57.0%</text>
   </g>
   <g id="text_80">
    <text style="font-size: 7px; font-family: 'Roboto'; text-anchor: middle; fill: #20242d" x="202.95" y="361.554062" transform="rotate(-0 202.95 361.554062)">45 of 79</text>
   </g>
   <g id="text_81">
    <text style="font-size: 9.5px; font-family: 'Roboto'; text-anchor: middle; fill: #434a57" x="256.77" y="351.639256" transform="rotate(-0 256.77 351.639256)">35.4%</text>
   </g>
   <g id="text_82">
    <text style="font-size: 7px; font-family: 'Roboto'; text-anchor: middle; fill: #434a57" x="256.77" y="361.554062" transform="rotate(-0 256.77 361.554062)">28 of 79</text>
   </g>
   <g id="text_83">
    <text style="font-size: 7px; font-family: 'Roboto'; text-anchor: start; fill: #747d8b" x="177.48" y="375.954063" transform="rotate(-0 177.48 375.954063)">Invalid: 3 succeeded, 6 failed</text>
   </g>
  </g>
 </g>
 <defs>
  <clipPath id="pdbae238362">
   <rect x="2.88" y="2.88" width="280.8" height="377.28"/>
  </clipPath>
 </defs>
</svg>
