<?xml version="1.0" encoding="utf-8" standalone="no"?>
<!DOCTYPE svg PUBLIC "-//W3C//DTD SVG 1.1//EN"
  "http://www.w3.org/Graphics/SVG/1.1/DTD/svg11.dtd">
<svg xmlns:xlink="http://www.w3.org/1999/xlink" width="546.95952pt" height="237.35952pt" viewBox="0 0 546.95952 237.35952" xmlns="http://www.w3.org/2000/svg" version="1.1">
 <metadata>
  <rdf:RDF xmlns:dc="http://purl.org/dc/elements/1.1/" xmlns:cc="http://creativecommons.org/ns#" xmlns:rdf="http://www.w3.org/1999/02/22-rdf-syntax-ns#">
   <cc:Work>
    <dc:type rdf:resource="http://purl.org/dc/dcmitype/StillImage"/>
    <dc:description>Mean recorded cost per review, on a log scale, against Five selection success and Single accuracy for each reviewer, on the 79 pools with recorded costs for every reviewer. A gray line joins reviewers that no cheaper reviewer beats.</dc:description>
    <dc:format>image/svg+xml</dc:format>
    <dc:creator>
     <cc:Agent>
      <dc:title>generate_second_life_tb4_figures.py</dc:title>
     </cc:Agent>
    </dc:creator>
   </cc:Work>
  </rdf:RDF>
 </metadata>
 <defs>
  <style type="text/css">*{stroke-linejoin: round; stroke-linecap: butt}</style>
 </defs>
 <g id="figure_1">
  <g id="patch_1">
   <path d="M 0 237.35952 
L 546.95952 237.35952 
L 546.95952 0 
L 0 0 
L 0 237.35952 
z
" style="fill: none"/>
  </g>
  <g id="axes_1">
   <g id="patch_2">
    <path d="M 25.508437 208.092489 
L 263.503895 208.092489 
L 263.503895 18.102969 
L 25.508437 18.102969 
L 25.508437 208.092489 
z
" style="fill: none"/>
   </g>
   <g id="matplotlib.axis_1">
    <g id="xtick_1">
     <g id="line2d_1">
      <path d="M 42.010044 208.092489 
L 42.010044 18.102969 
" clip-path="url(#pd3597e7e5f)" style="fill: none; stroke: #dfe4e9; stroke-width: 0.8; stroke-linecap: square"/>
     </g>
     <g id="line2d_2"/>
     <g id="text_1">
      <text style="font-size: 8.5px; font-family: 'Roboto'; text-anchor: middle; fill: #747d8b" x="42.010044" y="219.467489" transform="rotate(-0 42.010044 219.467489)">$0.05</text>
     </g>
    </g>
    <g id="xtick_2">
     <g id="line2d_3">
      <path d="M 74.078578 208.092489 
L 74.078578 18.102969 
" clip-path="url(#pd3597e7e5f)" style="fill: none; stroke: #dfe4e9; stroke-width: 0.8; stroke-linecap: square"/>
     </g>
     <g id="line2d_4"/>
     <g id="text_2">
      <text style="font-size: 8.5px; font-family: 'Roboto'; text-anchor: middle; fill: #747d8b" x="74.078578" y="219.467489" transform="rotate(-0 74.078578 219.467489)">$0.1</text>
     </g>
    </g>
    <g id="xtick_3">
     <g id="line2d_5">
      <path d="M 106.147111 208.092489 
L 106.147111 18.102969 
" clip-path="url(#pd3597e7e5f)" style="fill: none; stroke: #dfe4e9; stroke-width: 0.8; stroke-linecap: square"/>
     </g>
     <g id="line2d_6"/>
     <g id="text_3">
      <text style="font-size: 8.5px; font-family: 'Roboto'; text-anchor: middle; fill: #747d8b" x="106.147111" y="219.467489" transform="rotate(-0 106.147111 219.467489)">$0.2</text>
     </g>
    </g>
    <g id="xtick_4">
     <g id="line2d_7">
      <path d="M 148.539406 208.092489 
L 148.539406 18.102969 
" clip-path="url(#pd3597e7e5f)" style="fill: none; stroke: #dfe4e9; stroke-width: 0.8; stroke-linecap: square"/>
     </g>
     <g id="line2d_8"/>
     <g id="text_4">
      <text style="font-size: 8.5px; font-family: 'Roboto'; text-anchor: middle; fill: #747d8b" x="148.539406" y="219.467489" transform="rotate(-0 148.539406 219.467489)">$0.5</text>
     </g>
    </g>
    <g id="xtick_5">
     <g id="line2d_9">
      <path d="M 180.607939 208.092489 
L 180.607939 18.102969 
" clip-path="url(#pd3597e7e5f)" style="fill: none; stroke: #dfe4e9; stroke-width: 0.8; stroke-linecap: square"/>
     </g>
     <g id="line2d_10"/>
     <g id="text_5">
      <text style="font-size: 8.5px; font-family: 'Roboto'; text-anchor: middle; fill: #747d8b" x="180.607939" y="219.467489" transform="rotate(-0 180.607939 219.467489)">$1</text>
     </g>
    </g>
    <g id="xtick_6">
     <g id="line2d_11">
      <path d="M 212.676472 208.092489 
L 212.676472 18.102969 
" clip-path="url(#pd3597e7e5f)" style="fill: none; stroke: #dfe4e9; stroke-width: 0.8; stroke-linecap: square"/>
     </g>
     <g id="line2d_12"/>
     <g id="text_6">
      <text style="font-size: 8.5px; font-family: 'Roboto'; text-anchor: middle; fill: #747d8b" x="212.676472" y="219.467489" transform="rotate(-0 212.676472 219.467489)">$2</text>
     </g>
    </g>
    <g id="xtick_7">
     <g id="line2d_13">
      <path d="M 255.068767 208.092489 
L 255.068767 18.102969 
" clip-path="url(#pd3597e7e5f)" style="fill: none; stroke: #dfe4e9; stroke-width: 0.8; stroke-linecap: square"/>
     </g>
     <g id="line2d_14"/>
     <g id="text_7">
      <text style="font-size: 8.5px; font-family: 'Roboto'; text-anchor: middle; fill: #747d8b" x="255.068767" y="219.467489" transform="rotate(-0 255.068767 219.467489)">$5</text>
     </g>
    </g>
    <g id="text_8">
     <text style="font-size: 9px; font-family: 'Roboto'; text-anchor: middle; fill: #434a57" x="144.506166" y="232.413739" transform="rotate(-0 144.506166 232.413739)">Mean cost per review (log scale)</text>
    </g>
   </g>
   <g id="matplotlib.axis_2">
    <g id="ytick_1">
     <g id="line2d_15">
      <path d="M 25.508437 208.092489 
L 263.503895 208.092489 
" clip-path="url(#pd3597e7e5f)" style="fill: none; stroke: #dfe4e9; stroke-width: 0.8; stroke-linecap: square"/>
     </g>
     <g id="line2d_16"/>
     <g id="text_9">
      <text style="font-size: 9.5px; font-family: 'Roboto'; text-anchor: end; fill: #747d8b" x="20.508437" y="211.654989" transform="rotate(-0 20.508437 211.654989)">50%</text>
     </g>
    </g>
    <g id="ytick_2">
     <g id="line2d_17">
      <path d="M 25.508437 181.705055 
L 263.503895 181.705055 
" clip-path="url(#pd3597e7e5f)" style="fill: none; stroke: #dfe4e9; stroke-width: 0.8; stroke-linecap: square"/>
     </g>
     <g id="line2d_18"/>
     <g id="text_10">
      <text style="font-size: 9.5px; font-family: 'Roboto'; text-anchor: end; fill: #747d8b" x="20.508437" y="185.267555" transform="rotate(-0 20.508437 185.267555)">55%</text>
     </g>
    </g>
    <g id="ytick_3">
     <g id="line2d_19">
      <path d="M 25.508437 155.317622 
L 263.503895 155.317622 
" clip-path="url(#pd3597e7e5f)" style="fill: none; stroke: #dfe4e9; stroke-width: 0.8; stroke-linecap: square"/>
     </g>
     <g id="line2d_20"/>
     <g id="text_11">
      <text style="font-size: 9.5px; font-family: 'Roboto'; text-anchor: end; fill: #747d8b" x="20.508437" y="158.880122" transform="rotate(-0 20.508437 158.880122)">60%</text>
     </g>
    </g>
    <g id="ytick_4">
     <g id="line2d_21">
      <path d="M 25.508437 128.930189 
L 263.503895 128.930189 
" clip-path="url(#pd3597e7e5f)" style="fill: none; stroke: #dfe4e9; stroke-width: 0.8; stroke-linecap: square"/>
     </g>
     <g id="line2d_22"/>
     <g id="text_12">
      <text style="font-size: 9.5px; font-family: 'Roboto'; text-anchor: end; fill: #747d8b" x="20.508437" y="132.492689" transform="rotate(-0 20.508437 132.492689)">65%</text>
     </g>
    </g>
    <g id="ytick_5">
     <g id="line2d_23">
      <path d="M 25.508437 102.542755 
L 263.503895 102.542755 
" clip-path="url(#pd3597e7e5f)" style="fill: none; stroke: #dfe4e9; stroke-width: 0.8; stroke-linecap: square"/>
     </g>
     <g id="line2d_24"/>
     <g id="text_13">
      <text style="font-size: 9.5px; font-family: 'Roboto'; text-anchor: end; fill: #747d8b" x="20.508437" y="106.105255" transform="rotate(-0 20.508437 106.105255)">70%</text>
     </g>
    </g>
    <g id="ytick_6">
     <g id="line2d_25">
      <path d="M 25.508437 76.155322 
L 263.503895 76.155322 
" clip-path="url(#pd3597e7e5f)" style="fill: none; stroke: #dfe4e9; stroke-width: 0.8; stroke-linecap: square"/>
     </g>
     <g id="line2d_26"/>
     <g id="text_14">
      <text style="font-size: 9.5px; font-family: 'Roboto'; text-anchor: end; fill: #747d8b" x="20.508437" y="79.717822" transform="rotate(-0 20.508437 79.717822)">75%</text>
     </g>
    </g>
    <g id="ytick_7">
     <g id="line2d_27">
      <path d="M 25.508437 49.767889 
L 263.503895 49.767889 
" clip-path="url(#pd3597e7e5f)" style="fill: none; stroke: #dfe4e9; stroke-width: 0.8; stroke-linecap: square"/>
     </g>
     <g id="line2d_28"/>
     <g id="text_15">
      <text style="font-size: 9.5px; font-family: 'Roboto'; text-anchor: end; fill: #747d8b" x="20.508437" y="53.330389" transform="rotate(-0 20.508437 53.330389)">80%</text>
     </g>
    </g>
    <g id="ytick_8">
     <g id="line2d_29">
      <path d="M 25.508437 23.380455 
L 263.503895 23.380455 
" clip-path="url(#pd3597e7e5f)" style="fill: none; stroke: #dfe4e9; stroke-width: 0.8; stroke-linecap: square"/>
     </g>
     <g id="line2d_30"/>
     <g id="text_16">
      <text style="font-size: 9.5px; font-family: 'Roboto'; text-anchor: end; fill: #747d8b" x="20.508437" y="26.942955" transform="rotate(-0 20.508437 26.942955)">85%</text>
     </g>
    </g>
   </g>
   <g id="line2d_31">
    <path d="M 52.230618 164.67013 
L 91.447659 97.866501 
L 175.594355 64.464687 
L 196.130871 44.423598 
L 233.762948 37.743236 
" clip-path="url(#pd3597e7e5f)" style="fill: none; stroke: #dfe4e9; stroke-width: 2.2; stroke-linecap: round"/>
   </g>
   <g id="line2d_32">
    <path d="M 25.508437 176.694783 
L 263.503895 176.694783 
" clip-path="url(#pd3597e7e5f)" style="fill: none; stroke-dasharray: 3,2.5; stroke-dashoffset: 0; stroke: #747d8b"/>
   </g>
   <g id="text_17">
    <text style="font-size: 8.5px; font-family: 'Roboto'; text-anchor: end; fill: #434a57" x="227.762948" y="30.067454" transform="rotate(-0 227.762948 30.067454)">Opus 5.5  82.3%</text>
   </g>
   <g id="text_18">
    <text style="font-size: 8.5px; font-family: 'Roboto'; text-anchor: start; fill: #434a57" x="204.130871" y="55.747817" transform="rotate(-0 204.130871 55.747817)">GPT-5.6 Sol  81.0%</text>
   </g>
   <g id="text_19">
    <text style="font-size: 8.5px; font-family: 'Roboto'; text-anchor: start; fill: #434a57" x="183.594355" y="75.788906" transform="rotate(-0 183.594355 75.788906)">GPT-6 Sol  77.2%</text>
   </g>
   <g id="text_20">
    <text style="font-size: 8.5px; font-family: 'Roboto'; text-anchor: start; fill: #434a57" x="99.447659" y="94.19072" transform="rotate(-0 99.447659 94.19072)">GLM-5.3 Flash  70.9%</text>
   </g>
   <g id="text_21">
    <text style="font-size: 8.5px; font-family: 'Roboto'; text-anchor: start; fill: #434a57" x="200.294633" y="133.592535" transform="rotate(-0 200.294633 133.592535)">GLM-5.3  64.6%</text>
   </g>
   <g id="text_22">
    <text style="font-size: 8.5px; font-family: 'Roboto'; text-anchor: start; fill: #434a57" x="60.230618" y="158.994349" transform="rotate(-0 60.230618 158.994349)">DeepSeek V4.1 Flash  58.2%</text>
   </g>
   <g id="text_23">
    <text style="font-size: 8px; font-family: 'Roboto'; text-anchor: end; fill: #747d8b" x="261.503895" y="172.069783" transform="rotate(-0 261.503895 172.069783)">random 55.9%</text>
   </g>
   <g id="text_24">
    <text style="font-weight: 700; font-size: 9.5px; font-family: 'Roboto'; text-anchor: start; fill: #20242d" x="25.508437" y="10.102969" transform="rotate(-0 25.508437 10.102969)">Five: pick one of five</text>
   </g>
   <g id="line2d_33">
    <defs>
     <path id="m2a4c1c6074" d="M 0 4 
C 1.060812 4 2.078319 3.578535 2.828427 2.828427 
C 3.578535 2.078319 4 1.060812 4 0 
C 4 -1.060812 3.578535 -2.078319 2.828427 -2.828427 
C 2.078319 -3.578535 1.060812 -4 0 -4 
C -1.060812 -4 -2.078319 -3.578535 -2.828427 -2.828427 
C -3.578535 -2.078319 -4 -1.060812 -4 0 
C -4 1.060812 -3.578535 2.078319 -2.828427 2.828427 
C -2.078319 3.578535 -1.060812 4 0 4 
z
" style="stroke: #ffffff; stroke-width: 1.4"/>
    </defs>
    <g clip-path="url(#pd3597e7e5f)">
     <use xlink:href="#m2a4c1c6074" x="233.762948" y="37.743236" style="fill: #d97349; stroke: #ffffff; stroke-width: 1.4"/>
    </g>
   </g>
   <g id="line2d_34">
    <defs>
     <path id="m17bcc3933e" d="M 0 4 
C 1.060812 4 2.078319 3.578535 2.828427 2.828427 
C 3.578535 2.078319 4 1.060812 4 0 
C 4 -1.060812 3.578535 -2.078319 2.828427 -2.828427 
C 2.078319 -3.578535 1.060812 -4 0 -4 
C -1.060812 -4 -2.078319 -3.578535 -2.828427 -2.828427 
C -3.578535 -2.078319 -4 -1.060812 -4 0 
C -4 1.060812 -3.578535 2.078319 -2.828427 2.828427 
C -2.078319 3.578535 -1.060812 4 0 4 
z
" style="stroke: #ffffff; stroke-width: 1.4"/>
    </defs>
    <g clip-path="url(#pd3597e7e5f)">
     <use xlink:href="#m17bcc3933e" x="196.130871" y="44.423598" style="fill: #34a77e; stroke: #ffffff; stroke-width: 1.4"/>
    </g>
   </g>
   <g id="line2d_35">
    <defs>
     <path id="m2477652709" d="M 0 4 
C 1.060812 4 2.078319 3.578535 2.828427 2.828427 
C 3.578535 2.078319 4 1.060812 4 0 
C 4 -1.060812 3.578535 -2.078319 2.828427 -2.828427 
C 2.078319 -3.578535 1.060812 -4 0 -4 
C -1.060812 -4 -2.078319 -3.578535 -2.828427 -2.828427 
C -3.578535 -2.078319 -4 -1.060812 -4 0 
C -4 1.060812 -3.578535 2.078319 -2.828427 2.828427 
C -2.078319 3.578535 -1.060812 4 0 4 
z
" style="stroke: #ffffff; stroke-width: 1.4"/>
    </defs>
    <g clip-path="url(#pd3597e7e5f)">
     <use xlink:href="#m2477652709" x="175.594355" y="64.464687" style="fill: #1b7653; stroke: #ffffff; stroke-width: 1.4"/>
    </g>
   </g>
   <g id="line2d_36">
    <defs>
     <path id="mf86cab892e" d="M 0 4 
C 1.060812 4 2.078319 3.578535 2.828427 2.828427 
C 3.578535 2.078319 4 1.060812 4 0 
C 4 -1.060812 3.578535 -2.078319 2.828427 -2.828427 
C 2.078319 -3.578535 1.060812 -4 0 -4 
C -1.060812 -4 -2.078319 -3.578535 -2.828427 -2.828427 
C -3.578535 -2.078319 -4 -1.060812 -4 0 
C -4 1.060812 -3.578535 2.078319 -2.828427 2.828427 
C -2.078319 3.578535 -1.060812 4 0 4 
z
" style="stroke: #ffffff; stroke-width: 1.4"/>
    </defs>
    <g clip-path="url(#pd3597e7e5f)">
     <use xlink:href="#mf86cab892e" x="91.447659" y="97.866501" style="fill: #b47cbb; stroke: #ffffff; stroke-width: 1.4"/>
    </g>
   </g>
   <g id="line2d_37">
    <defs>
     <path id="me09f263c9c" d="M 0 4 
C 1.060812 4 2.078319 3.578535 2.828427 2.828427 
C 3.578535 2.078319 4 1.060812 4 0 
C 4 -1.060812 3.578535 -2.078319 2.828427 -2.828427 
C 2.078319 -3.578535 1.060812 -4 0 -4 
C -1.060812 -4 -2.078319 -3.578535 -2.828427 -2.828427 
C -3.578535 -2.078319 -4 -1.060812 -4 0 
C -4 1.060812 -3.578535 2.078319 -2.828427 2.828427 
C -2.078319 3.578535 -1.060812 4 0 4 
z
" style="stroke: #ffffff; stroke-width: 1.4"/>
    </defs>
    <g clip-path="url(#pd3597e7e5f)">
     <use xlink:href="#me09f263c9c" x="192.294633" y="131.268316" style="fill: #8d46b9; stroke: #ffffff; stroke-width: 1.4"/>
    </g>
   </g>
   <g id="line2d_38">
    <defs>
     <path id="m802fe01a2c" d="M 0 4 
C 1.060812 4 2.078319 3.578535 2.828427 2.828427 
C 3.578535 2.078319 4 1.060812 4 0 
C 4 -1.060812 3.578535 -2.078319 2.828427 -2.828427 
C 2.078319 -3.578535 1.060812 -4 0 -4 
C -1.060812 -4 -2.078319 -3.578535 -2.828427 -2.828427 
C -3.578535 -2.078319 -4 -1.060812 -4 0 
C -4 1.060812 -3.578535 2.078319 -2.828427 2.828427 
C -2.078319 3.578535 -1.060812 4 0 4 
z
" style="stroke: #ffffff; stroke-width: 1.4"/>
    </defs>
    <g clip-path="url(#pd3597e7e5f)">
     <use xlink:href="#m802fe01a2c" x="52.230618" y="164.67013" style="fill: #4b72f4; stroke: #ffffff; stroke-width: 1.4"/>
    </g>
   </g>
  </g>
  <g id="axes_2">
   <g id="patch_3">
    <path d="M 306.084063 208.092489 
L 544.07952 208.092489 
L 544.07952 18.102969 
L 306.084063 18.102969 
L 306.084063 208.092489 
z
" style="fill: none"/>
   </g>
   <g id="matplotlib.axis_3">
    <g id="xtick_8">
     <g id="line2d_39">
      <path d="M 322.58567 208.092489 
L 322.58567 18.102969 
" clip-path="url(#pea984b75f1)" style="fill: none; stroke: #dfe4e9; stroke-width: 0.8; stroke-linecap: square"/>
     </g>
     <g id="line2d_40"/>
     <g id="text_25">
      <text style="font-size: 8.5px; font-family: 'Roboto'; text-anchor: middle; fill: #747d8b" x="322.58567" y="219.467489" transform="rotate(-0 322.58567 219.467489)">$0.05</text>
     </g>
    </g>
    <g id="xtick_9">
     <g id="line2d_41">
      <path d="M 354.654203 208.092489 
L 354.654203 18.102969 
" clip-path="url(#pea984b75f1)" style="fill: none; stroke: #dfe4e9; stroke-width: 0.8; stroke-linecap: square"/>
     </g>
     <g id="line2d_42"/>
     <g id="text_26">
      <text style="font-size: 8.5px; font-family: 'Roboto'; text-anchor: middle; fill: #747d8b" x="354.654203" y="219.467489" transform="rotate(-0 354.654203 219.467489)">$0.1</text>
     </g>
    </g>
    <g id="xtick_10">
     <g id="line2d_43">
      <path d="M 386.722736 208.092489 
L 386.722736 18.102969 
" clip-path="url(#pea984b75f1)" style="fill: none; stroke: #dfe4e9; stroke-width: 0.8; stroke-linecap: square"/>
     </g>
     <g id="line2d_44"/>
     <g id="text_27">
      <text style="font-size: 8.5px; font-family: 'Roboto'; text-anchor: middle; fill: #747d8b" x="386.722736" y="219.467489" transform="rotate(-0 386.722736 219.467489)">$0.2</text>
     </g>
    </g>
    <g id="xtick_11">
     <g id="line2d_45">
      <path d="M 429.115031 208.092489 
L 429.115031 18.102969 
" clip-path="url(#pea984b75f1)" style="fill: none; stroke: #dfe4e9; stroke-width: 0.8; stroke-linecap: square"/>
     </g>
     <g id="line2d_46"/>
     <g id="text_28">
      <text style="font-size: 8.5px; font-family: 'Roboto'; text-anchor: middle; fill: #747d8b" x="429.115031" y="219.467489" transform="rotate(-0 429.115031 219.467489)">$0.5</text>
     </g>
    </g>
    <g id="xtick_12">
     <g id="line2d_47">
      <path d="M 461.183564 208.092489 
L 461.183564 18.102969 
" clip-path="url(#pea984b75f1)" style="fill: none; stroke: #dfe4e9; stroke-width: 0.8; stroke-linecap: square"/>
     </g>
     <g id="line2d_48"/>
     <g id="text_29">
      <text style="font-size: 8.5px; font-family: 'Roboto'; text-anchor: middle; fill: #747d8b" x="461.183564" y="219.467489" transform="rotate(-0 461.183564 219.467489)">$1</text>
     </g>
    </g>
    <g id="xtick_13">
     <g id="line2d_49">
      <path d="M 493.252097 208.092489 
L 493.252097 18.102969 
" clip-path="url(#pea984b75f1)" style="fill: none; stroke: #dfe4e9; stroke-width: 0.8; stroke-linecap: square"/>
     </g>
     <g id="line2d_50"/>
     <g id="text_30">
      <text style="font-size: 8.5px; font-family: 'Roboto'; text-anchor: middle; fill: #747d8b" x="493.252097" y="219.467489" transform="rotate(-0 493.252097 219.467489)">$2</text>
     </g>
    </g>
    <g id="xtick_14">
     <g id="line2d_51">
      <path d="M 535.644392 208.092489 
L 535.644392 18.102969 
" clip-path="url(#pea984b75f1)" style="fill: none; stroke: #dfe4e9; stroke-width: 0.8; stroke-linecap: square"/>
     </g>
     <g id="line2d_52"/>
     <g id="text_31">
      <text style="font-size: 8.5px; font-family: 'Roboto'; text-anchor: middle; fill: #747d8b" x="535.644392" y="219.467489" transform="rotate(-0 535.644392 219.467489)">$5</text>
     </g>
    </g>
    <g id="text_32">
     <text style="font-size: 9px; font-family: 'Roboto'; text-anchor: middle; fill: #434a57" x="425.081791" y="232.413739" transform="rotate(-0 425.081791 232.413739)">Mean cost per review (log scale)</text>
    </g>
   </g>
   <g id="matplotlib.axis_4">
    <g id="ytick_9">
     <g id="line2d_53">
      <path d="M 306.084063 170.094585 
L 544.07952 170.094585 
" clip-path="url(#pea984b75f1)" style="fill: none; stroke: #dfe4e9; stroke-width: 0.8; stroke-linecap: square"/>
     </g>
     <g id="line2d_54"/>
     <g id="text_33">
      <text style="font-size: 9.5px; font-family: 'Roboto'; text-anchor: end; fill: #747d8b" x="301.084063" y="173.657085" transform="rotate(-0 301.084063 173.657085)">50%</text>
     </g>
    </g>
    <g id="ytick_10">
     <g id="line2d_55">
      <path d="M 306.084063 122.597205 
L 544.07952 122.597205 
" clip-path="url(#pea984b75f1)" style="fill: none; stroke: #dfe4e9; stroke-width: 0.8; stroke-linecap: square"/>
     </g>
     <g id="line2d_56"/>
     <g id="text_34">
      <text style="font-size: 9.5px; font-family: 'Roboto'; text-anchor: end; fill: #747d8b" x="301.084063" y="126.159705" transform="rotate(-0 301.084063 126.159705)">55%</text>
     </g>
    </g>
    <g id="ytick_11">
     <g id="line2d_57">
      <path d="M 306.084063 75.099825 
L 544.07952 75.099825 
" clip-path="url(#pea984b75f1)" style="fill: none; stroke: #dfe4e9; stroke-width: 0.8; stroke-linecap: square"/>
     </g>
     <g id="line2d_58"/>
     <g id="text_35">
      <text style="font-size: 9.5px; font-family: 'Roboto'; text-anchor: end; fill: #747d8b" x="301.084063" y="78.662325" transform="rotate(-0 301.084063 78.662325)">60%</text>
     </g>
    </g>
    <g id="ytick_12">
     <g id="line2d_59">
      <path d="M 306.084063 27.602445 
L 544.07952 27.602445 
" clip-path="url(#pea984b75f1)" style="fill: none; stroke: #dfe4e9; stroke-width: 0.8; stroke-linecap: square"/>
     </g>
     <g id="line2d_60"/>
     <g id="text_36">
      <text style="font-size: 9.5px; font-family: 'Roboto'; text-anchor: end; fill: #747d8b" x="301.084063" y="31.164945" transform="rotate(-0 301.084063 31.164945)">65%</text>
     </g>
    </g>
   </g>
   <g id="line2d_61">
    <path d="M 325.451651 170.094585 
L 357.212039 115.983646 
L 435.778485 91.934339 
L 449.40023 79.909686 
L 509.867521 55.86038 
" clip-path="url(#pea984b75f1)" style="fill: none; stroke: #dfe4e9; stroke-width: 2.2; stroke-linecap: round"/>
   </g>
   <g id="line2d_62">
    <path d="M 306.084063 170.094585 
L 544.07952 170.094585 
" clip-path="url(#pea984b75f1)" style="fill: none; stroke-dasharray: 3,2.5; stroke-dashoffset: 0; stroke: #747d8b"/>
   </g>
   <g id="text_37">
    <text style="font-size: 8.5px; font-family: 'Roboto'; text-anchor: end; fill: #434a57" x="501.867521" y="51.184598" transform="rotate(-0 501.867521 51.184598)">Opus 5.5  62.0%</text>
   </g>
   <g id="text_38">
    <text style="font-size: 8.5px; font-family: 'Roboto'; text-anchor: start; fill: #434a57" x="457.40023" y="90.233905" transform="rotate(-0 457.40023 90.233905)">GPT-5.6 Sol  59.5%</text>
   </g>
   <g id="text_39">
    <text style="font-size: 8.5px; font-family: 'Roboto'; text-anchor: end; fill: #434a57" x="427.778485" y="87.258558" transform="rotate(-0 427.778485 87.258558)">GPT-6 Sol  58.2%</text>
   </g>
   <g id="text_40">
    <text style="font-size: 8.5px; font-family: 'Roboto'; text-anchor: start; fill: #434a57" x="365.212039" y="118.307864" transform="rotate(-0 365.212039 118.307864)">GLM-5.3 Flash  55.7%</text>
   </g>
   <g id="text_41">
    <text style="font-size: 8.5px; font-family: 'Roboto'; text-anchor: start; fill: #434a57" x="450.764007" y="136.332517" transform="rotate(-0 450.764007 136.332517)">GLM-5.3  54.4%</text>
   </g>
   <g id="text_42">
    <text style="font-size: 8.5px; font-family: 'Roboto'; text-anchor: start; fill: #434a57" x="333.451651" y="163.418804" transform="rotate(-0 333.451651 163.418804)">DeepSeek V4.1 Flash  50.0%</text>
   </g>
   <g id="text_43">
    <text style="font-size: 8px; font-family: 'Roboto'; text-anchor: end; fill: #747d8b" x="542.07952" y="165.469585" transform="rotate(-0 542.07952 165.469585)">random 50%</text>
   </g>
   <g id="text_44">
    <text style="font-weight: 700; font-size: 9.5px; font-family: 'Roboto'; text-anchor: start; fill: #20242d" x="306.084063" y="10.102969" transform="rotate(-0 306.084063 10.102969)">Single: judge one run</text>
   </g>
   <g id="line2d_63">
    <g clip-path="url(#pea984b75f1)">
     <use xlink:href="#m2a4c1c6074" x="509.867521" y="55.86038" style="fill: #d97349; stroke: #ffffff; stroke-width: 1.4"/>
    </g>
   </g>
   <g id="line2d_64">
    <g clip-path="url(#pea984b75f1)">
     <use xlink:href="#m17bcc3933e" x="449.40023" y="79.909686" style="fill: #34a77e; stroke: #ffffff; stroke-width: 1.4"/>
    </g>
   </g>
   <g id="line2d_65">
    <g clip-path="url(#pea984b75f1)">
     <use xlink:href="#m2477652709" x="435.778485" y="91.934339" style="fill: #1b7653; stroke: #ffffff; stroke-width: 1.4"/>
    </g>
   </g>
   <g id="line2d_66">
    <g clip-path="url(#pea984b75f1)">
     <use xlink:href="#mf86cab892e" x="357.212039" y="115.983646" style="fill: #b47cbb; stroke: #ffffff; stroke-width: 1.4"/>
    </g>
   </g>
   <g id="line2d_67">
    <g clip-path="url(#pea984b75f1)">
     <use xlink:href="#me09f263c9c" x="442.764007" y="128.008299" style="fill: #8d46b9; stroke: #ffffff; stroke-width: 1.4"/>
    </g>
   </g>
   <g id="line2d_68">
    <g clip-path="url(#pea984b75f1)">
     <use xlink:href="#m802fe01a2c" x="325.451651" y="170.094585" style="fill: #4b72f4; stroke: #ffffff; stroke-width: 1.4"/>
    </g>
   </g>
  </g>
 </g>
 <defs>
  <clipPath id="pd3597e7e5f">
   <rect x="25.508437" y="18.102969" width="237.995457" height="189.98952"/>
  </clipPath>
  <clipPath id="pea984b75f1">
   <rect x="306.084063" y="18.102969" width="237.995457" height="189.98952"/>
  </clipPath>
 </defs>
</svg>
