<?xml version="1.0" encoding="utf-8" standalone="no"?>
<!DOCTYPE svg PUBLIC "-//W3C//DTD SVG 1.1//EN"
  "http://www.w3.org/Graphics/SVG/1.1/DTD/svg11.dtd">
<svg xmlns:xlink="http://www.w3.org/1999/xlink" width="504.72pt" height="511.92pt" viewBox="0 0 504.72 511.92" xmlns="http://www.w3.org/2000/svg" version="1.1">
 <metadata>
  <rdf:RDF xmlns:dc="http://purl.org/dc/elements/1.1/" xmlns:cc="http://creativecommons.org/ns#" xmlns:rdf="http://www.w3.org/1999/02/22-rdf-syntax-ns#">
   <cc:Work>
    <dc:type rdf:resource="http://purl.org/dc/dcmitype/StillImage"/>
    <dc:description>Scores on the six tasks shared by the three original sources, by source and reviewer, for Single, Pair and Five. Blue cells are above random and red cells below; each cell also gives the score on all pools.</dc:description>
    <dc:format>image/svg+xml</dc:format>
    <dc:creator>
     <cc:Agent>
      <dc:title>generate_second_life_tb4_figures.py</dc:title>
     </cc:Agent>
    </dc:creator>
   </cc:Work>
  </rdf:RDF>
 </metadata>
 <defs>
  <style type="text/css">*{stroke-linejoin: round; stroke-linecap: butt}</style>
 </defs>
 <g id="figure_1">
  <g id="patch_1">
   <path d="M 0 511.92 
L 504.72 511.92 
L 504.72 -0 
L 0 -0 
L 0 511.92 
z
" style="fill: none"/>
  </g>
  <g id="axes_1">
   <g id="patch_2">
    <path d="M 78.48 14.4 
L 80.64 14.4 
L 80.64 23.04 
L 78.48 23.04 
z
" clip-path="url(#p7cdb8bfccc)" style="fill: #d1392e; opacity: 0.7"/>
   </g>
   <g id="patch_3">
    <path d="M 80.64 14.4 
L 82.8 14.4 
L 82.8 23.04 
L 80.64 23.04 
z
" clip-path="url(#p7cdb8bfccc)" style="fill: #d1392e; opacity: 0.67"/>
   </g>
   <g id="patch_4">
    <path d="M 82.8 14.4 
L 84.96 14.4 
L 84.96 23.04 
L 82.8 23.04 
z
" clip-path="url(#p7cdb8bfccc)" style="fill: #d1392e; opacity: 0.64"/>
   </g>
   <g id="patch_5">
    <path d="M 84.96 14.4 
L 87.12 14.4 
L 87.12 23.04 
L 84.96 23.04 
z
" clip-path="url(#p7cdb8bfccc)" style="fill: #d1392e; opacity: 0.61"/>
   </g>
   <g id="patch_6">
    <path d="M 87.12 14.4 
L 89.28 14.4 
L 89.28 23.04 
L 87.12 23.04 
z
" clip-path="url(#p7cdb8bfccc)" style="fill: #d1392e; opacity: 0.58"/>
   </g>
   <g id="patch_7">
    <path d="M 89.28 14.4 
L 91.44 14.4 
L 91.44 23.04 
L 89.28 23.04 
z
" clip-path="url(#p7cdb8bfccc)" style="fill: #d1392e; opacity: 0.55"/>
   </g>
   <g id="patch_8">
    <path d="M 91.44 14.4 
L 93.6 14.4 
L 93.6 23.04 
L 91.44 23.04 
z
" clip-path="url(#p7cdb8bfccc)" style="fill: #d1392e; opacity: 0.52"/>
   </g>
   <g id="patch_9">
    <path d="M 93.6 14.4 
L 95.76 14.4 
L 95.76 23.04 
L 93.6 23.04 
z
" clip-path="url(#p7cdb8bfccc)" style="fill: #d1392e; opacity: 0.49"/>
   </g>
   <g id="patch_10">
    <path d="M 95.76 14.4 
L 97.92 14.4 
L 97.92 23.04 
L 95.76 23.04 
z
" clip-path="url(#p7cdb8bfccc)" style="fill: #d1392e; opacity: 0.46"/>
   </g>
   <g id="patch_11">
    <path d="M 97.92 14.4 
L 100.08 14.4 
L 100.08 23.04 
L 97.92 23.04 
z
" clip-path="url(#p7cdb8bfccc)" style="fill: #d1392e; opacity: 0.43"/>
   </g>
   <g id="patch_12">
    <path d="M 100.08 14.4 
L 102.24 14.4 
L 102.24 23.04 
L 100.08 23.04 
z
" clip-path="url(#p7cdb8bfccc)" style="fill: #d1392e; opacity: 0.4"/>
   </g>
   <g id="patch_13">
    <path d="M 102.24 14.4 
L 104.4 14.4 
L 104.4 23.04 
L 102.24 23.04 
z
" clip-path="url(#p7cdb8bfccc)" style="fill: #d1392e; opacity: 0.37"/>
   </g>
   <g id="patch_14">
    <path d="M 104.4 14.4 
L 106.56 14.4 
L 106.56 23.04 
L 104.4 23.04 
z
" clip-path="url(#p7cdb8bfccc)" style="fill: #d1392e; opacity: 0.34"/>
   </g>
   <g id="patch_15">
    <path d="M 106.56 14.4 
L 108.72 14.4 
L 108.72 23.04 
L 106.56 23.04 
z
" clip-path="url(#p7cdb8bfccc)" style="fill: #d1392e; opacity: 0.31"/>
   </g>
   <g id="patch_16">
    <path d="M 108.72 14.4 
L 110.88 14.4 
L 110.88 23.04 
L 108.72 23.04 
z
" clip-path="url(#p7cdb8bfccc)" style="fill: #d1392e; opacity: 0.28"/>
   </g>
   <g id="patch_17">
    <path d="M 110.88 14.4 
L 113.04 14.4 
L 113.04 23.04 
L 110.88 23.04 
z
" clip-path="url(#p7cdb8bfccc)" style="fill: #d1392e; opacity: 0.25"/>
   </g>
   <g id="patch_18">
    <path d="M 113.04 14.4 
L 115.2 14.4 
L 115.2 23.04 
L 113.04 23.04 
z
" clip-path="url(#p7cdb8bfccc)" style="fill: #d1392e; opacity: 0.22"/>
   </g>
   <g id="patch_19">
    <path d="M 115.2 14.4 
L 117.36 14.4 
L 117.36 23.04 
L 115.2 23.04 
z
" clip-path="url(#p7cdb8bfccc)" style="fill: #d1392e; opacity: 0.19"/>
   </g>
   <g id="patch_20">
    <path d="M 117.36 14.4 
L 119.52 14.4 
L 119.52 23.04 
L 117.36 23.04 
z
" clip-path="url(#p7cdb8bfccc)" style="fill: #d1392e; opacity: 0.16"/>
   </g>
   <g id="patch_21">
    <path d="M 119.52 14.4 
L 121.68 14.4 
L 121.68 23.04 
L 119.52 23.04 
z
" clip-path="url(#p7cdb8bfccc)" style="fill: #d1392e; opacity: 0.13"/>
   </g>
   <g id="patch_22">
    <path d="M 121.68 14.4 
L 123.84 14.4 
L 123.84 23.04 
L 121.68 23.04 
z
" clip-path="url(#p7cdb8bfccc)" style="fill: #2a86b8; opacity: 0.1"/>
   </g>
   <g id="patch_23">
    <path d="M 123.84 14.4 
L 126 14.4 
L 126 23.04 
L 123.84 23.04 
z
" clip-path="url(#p7cdb8bfccc)" style="fill: #2a86b8; opacity: 0.13"/>
   </g>
   <g id="patch_24">
    <path d="M 126 14.4 
L 128.16 14.4 
L 128.16 23.04 
L 126 23.04 
z
" clip-path="url(#p7cdb8bfccc)" style="fill: #2a86b8; opacity: 0.16"/>
   </g>
   <g id="patch_25">
    <path d="M 128.16 14.4 
L 130.32 14.4 
L 130.32 23.04 
L 128.16 23.04 
z
" clip-path="url(#p7cdb8bfccc)" style="fill: #2a86b8; opacity: 0.19"/>
   </g>
   <g id="patch_26">
    <path d="M 130.32 14.4 
L 132.48 14.4 
L 132.48 23.04 
L 130.32 23.04 
z
" clip-path="url(#p7cdb8bfccc)" style="fill: #2a86b8; opacity: 0.22"/>
   </g>
   <g id="patch_27">
    <path d="M 132.48 14.4 
L 134.64 14.4 
L 134.64 23.04 
L 132.48 23.04 
z
" clip-path="url(#p7cdb8bfccc)" style="fill: #2a86b8; opacity: 0.25"/>
   </g>
   <g id="patch_28">
    <path d="M 134.64 14.4 
L 136.8 14.4 
L 136.8 23.04 
L 134.64 23.04 
z
" clip-path="url(#p7cdb8bfccc)" style="fill: #2a86b8; opacity: 0.28"/>
   </g>
   <g id="patch_29">
    <path d="M 136.8 14.4 
L 138.96 14.4 
L 138.96 23.04 
L 136.8 23.04 
z
" clip-path="url(#p7cdb8bfccc)" style="fill: #2a86b8; opacity: 0.31"/>
   </g>
   <g id="patch_30">
    <path d="M 138.96 14.4 
L 141.12 14.4 
L 141.12 23.04 
L 138.96 23.04 
z
" clip-path="url(#p7cdb8bfccc)" style="fill: #2a86b8; opacity: 0.34"/>
   </g>
   <g id="patch_31">
    <path d="M 141.12 14.4 
L 143.28 14.4 
L 143.28 23.04 
L 141.12 23.04 
z
" clip-path="url(#p7cdb8bfccc)" style="fill: #2a86b8; opacity: 0.37"/>
   </g>
   <g id="patch_32">
    <path d="M 143.28 14.4 
L 145.44 14.4 
L 145.44 23.04 
L 143.28 23.04 
z
" clip-path="url(#p7cdb8bfccc)" style="fill: #2a86b8; opacity: 0.4"/>
   </g>
   <g id="patch_33">
    <path d="M 145.44 14.4 
L 147.6 14.4 
L 147.6 23.04 
L 145.44 23.04 
z
" clip-path="url(#p7cdb8bfccc)" style="fill: #2a86b8; opacity: 0.43"/>
   </g>
   <g id="patch_34">
    <path d="M 147.6 14.4 
L 149.76 14.4 
L 149.76 23.04 
L 147.6 23.04 
z
" clip-path="url(#p7cdb8bfccc)" style="fill: #2a86b8; opacity: 0.46"/>
   </g>
   <g id="patch_35">
    <path d="M 149.76 14.4 
L 151.92 14.4 
L 151.92 23.04 
L 149.76 23.04 
z
" clip-path="url(#p7cdb8bfccc)" style="fill: #2a86b8; opacity: 0.49"/>
   </g>
   <g id="patch_36">
    <path d="M 151.92 14.4 
L 154.08 14.4 
L 154.08 23.04 
L 151.92 23.04 
z
" clip-path="url(#p7cdb8bfccc)" style="fill: #2a86b8; opacity: 0.52"/>
   </g>
   <g id="patch_37">
    <path d="M 154.08 14.4 
L 156.24 14.4 
L 156.24 23.04 
L 154.08 23.04 
z
" clip-path="url(#p7cdb8bfccc)" style="fill: #2a86b8; opacity: 0.55"/>
   </g>
   <g id="patch_38">
    <path d="M 156.24 14.4 
L 158.4 14.4 
L 158.4 23.04 
L 156.24 23.04 
z
" clip-path="url(#p7cdb8bfccc)" style="fill: #2a86b8; opacity: 0.58"/>
   </g>
   <g id="patch_39">
    <path d="M 158.4 14.4 
L 160.56 14.4 
L 160.56 23.04 
L 158.4 23.04 
z
" clip-path="url(#p7cdb8bfccc)" style="fill: #2a86b8; opacity: 0.61"/>
   </g>
   <g id="patch_40">
    <path d="M 160.56 14.4 
L 162.72 14.4 
L 162.72 23.04 
L 160.56 23.04 
z
" clip-path="url(#p7cdb8bfccc)" style="fill: #2a86b8; opacity: 0.64"/>
   </g>
   <g id="patch_41">
    <path d="M 162.72 14.4 
L 164.88 14.4 
L 164.88 23.04 
L 162.72 23.04 
z
" clip-path="url(#p7cdb8bfccc)" style="fill: #2a86b8; opacity: 0.67"/>
   </g>
   <g id="patch_42">
    <path d="M 164.88 14.4 
L 167.04 14.4 
L 167.04 23.04 
L 164.88 23.04 
z
" clip-path="url(#p7cdb8bfccc)" style="fill: #2a86b8; opacity: 0.7"/>
   </g>
   <g id="patch_43">
    <path d="M 79.92 89.28 
L 147.6 89.28 
L 147.6 119.52 
L 79.92 119.52 
z
" clip-path="url(#p7cdb8bfccc)" style="fill: #2a86b8; opacity: 0.18"/>
   </g>
   <g id="patch_44">
    <path d="M 150.48 89.28 
L 218.16 89.28 
L 218.16 119.52 
L 150.48 119.52 
z
" clip-path="url(#p7cdb8bfccc)" style="fill: #2a86b8; opacity: 0.18"/>
   </g>
   <g id="patch_45">
    <path d="M 221.04 89.28 
L 288.72 89.28 
L 288.72 119.52 
L 221.04 119.52 
z
" clip-path="url(#p7cdb8bfccc)" style="fill: #2a86b8; opacity: 0.08"/>
   </g>
   <g id="patch_46">
    <path d="M 291.6 89.28 
L 359.28 89.28 
L 359.28 119.52 
L 291.6 119.52 
z
" clip-path="url(#p7cdb8bfccc)" style="fill: #2a86b8; opacity: 0.08"/>
   </g>
   <g id="patch_47">
    <path d="M 362.16 89.28 
L 429.84 89.28 
L 429.84 119.52 
L 362.16 119.52 
z
" clip-path="url(#p7cdb8bfccc)" style="fill: #2a86b8; opacity: 0.08"/>
   </g>
   <g id="patch_48">
    <path d="M 432.72 89.28 
L 500.4 89.28 
L 500.4 119.52 
L 432.72 119.52 
z
" clip-path="url(#p7cdb8bfccc)" style="fill: #2a86b8; opacity: 0.08"/>
   </g>
   <g id="patch_49">
    <path d="M 79.92 122.4 
L 147.6 122.4 
L 147.6 152.64 
L 79.92 152.64 
z
" clip-path="url(#p7cdb8bfccc)" style="fill: #2a86b8; opacity: 0.23"/>
   </g>
   <g id="patch_50">
    <path d="M 150.48 122.4 
L 218.16 122.4 
L 218.16 152.64 
L 150.48 152.64 
z
" clip-path="url(#p7cdb8bfccc)" style="fill: #2a86b8; opacity: 0.13"/>
   </g>
   <g id="patch_51">
    <path d="M 221.04 122.4 
L 288.72 122.4 
L 288.72 152.64 
L 221.04 152.64 
z
" clip-path="url(#p7cdb8bfccc)" style="fill: #2a86b8; opacity: 0.23"/>
   </g>
   <g id="patch_52">
    <path d="M 291.6 122.4 
L 359.28 122.4 
L 359.28 152.64 
L 291.6 152.64 
z
" clip-path="url(#p7cdb8bfccc)" style="fill: #2a86b8; opacity: 0.08"/>
   </g>
   <g id="patch_53">
    <path d="M 362.16 122.4 
L 429.84 122.4 
L 429.84 152.64 
L 362.16 152.64 
z
" clip-path="url(#p7cdb8bfccc)" style="fill: #2a86b8; opacity: 0.08"/>
   </g>
   <g id="patch_54">
    <path d="M 432.72 122.4 
L 500.4 122.4 
L 500.4 152.64 
L 432.72 152.64 
z
" clip-path="url(#p7cdb8bfccc)" style="fill: #d1392e; opacity: 0.18"/>
   </g>
   <g id="patch_55">
    <path d="M 79.92 155.52 
L 147.6 155.52 
L 147.6 185.76 
L 79.92 185.76 
z
" clip-path="url(#p7cdb8bfccc)" style="fill: #2a86b8; opacity: 0.28"/>
   </g>
   <g id="patch_56">
    <path d="M 150.48 155.52 
L 218.16 155.52 
L 218.16 185.76 
L 150.48 185.76 
z
" clip-path="url(#p7cdb8bfccc)" style="fill: #2a86b8; opacity: 0.13"/>
   </g>
   <g id="patch_57">
    <path d="M 221.04 155.52 
L 288.72 155.52 
L 288.72 185.76 
L 221.04 185.76 
z
" clip-path="url(#p7cdb8bfccc)" style="fill: #2a86b8; opacity: 0.18"/>
   </g>
   <g id="patch_58">
    <path d="M 291.6 155.52 
L 359.28 155.52 
L 359.28 185.76 
L 291.6 185.76 
z
" clip-path="url(#p7cdb8bfccc)" style="fill: #2a86b8; opacity: 0.13"/>
   </g>
   <g id="patch_59">
    <path d="M 362.16 155.52 
L 429.84 155.52 
L 429.84 185.76 
L 362.16 185.76 
z
" clip-path="url(#p7cdb8bfccc)" style="fill: #2a86b8; opacity: 0.08"/>
   </g>
   <g id="patch_60">
    <path d="M 432.72 155.52 
L 500.4 155.52 
L 500.4 185.76 
L 432.72 185.76 
z
" clip-path="url(#p7cdb8bfccc)" style="fill: #d1392e; opacity: 0.23"/>
   </g>
   <g id="patch_61">
    <path d="M 79.92 244.8 
L 147.6 244.8 
L 147.6 275.04 
L 79.92 275.04 
z
" clip-path="url(#p7cdb8bfccc)" style="fill: #2a86b8; opacity: 0.28"/>
   </g>
   <g id="patch_62">
    <path d="M 150.48 244.8 
L 218.16 244.8 
L 218.16 275.04 
L 150.48 275.04 
z
" clip-path="url(#p7cdb8bfccc)" style="fill: #2a86b8; opacity: 0.18"/>
   </g>
   <g id="patch_63">
    <path d="M 221.04 244.8 
L 288.72 244.8 
L 288.72 275.04 
L 221.04 275.04 
z
" clip-path="url(#p7cdb8bfccc)" style="fill: #2a86b8; opacity: 0.28"/>
   </g>
   <g id="patch_64">
    <path d="M 291.6 244.8 
L 359.28 244.8 
L 359.28 275.04 
L 291.6 275.04 
z
" clip-path="url(#p7cdb8bfccc)" style="fill: #2a86b8; opacity: 0.18"/>
   </g>
   <g id="patch_65">
    <path d="M 362.16 244.8 
L 429.84 244.8 
L 429.84 275.04 
L 362.16 275.04 
z
" clip-path="url(#p7cdb8bfccc)" style="fill: #d1392e; opacity: 0.18"/>
   </g>
   <g id="patch_66">
    <path d="M 432.72 244.8 
L 500.4 244.8 
L 500.4 275.04 
L 432.72 275.04 
z
" clip-path="url(#p7cdb8bfccc)" style="fill: #2a86b8; opacity: 0.18"/>
   </g>
   <g id="patch_67">
    <path d="M 79.92 277.92 
L 147.6 277.92 
L 147.6 308.16 
L 79.92 308.16 
z
" clip-path="url(#p7cdb8bfccc)" style="fill: #2a86b8; opacity: 0.28"/>
   </g>
   <g id="patch_68">
    <path d="M 150.48 277.92 
L 218.16 277.92 
L 218.16 308.16 
L 150.48 308.16 
z
" clip-path="url(#p7cdb8bfccc)" style="fill: #2a86b8; opacity: 0.08"/>
   </g>
   <g id="patch_69">
    <path d="M 221.04 277.92 
L 288.72 277.92 
L 288.72 308.16 
L 221.04 308.16 
z
" clip-path="url(#p7cdb8bfccc)" style="fill: #2a86b8; opacity: 0.38"/>
   </g>
   <g id="patch_70">
    <path d="M 291.6 277.92 
L 359.28 277.92 
L 359.28 308.16 
L 291.6 308.16 
z
" clip-path="url(#p7cdb8bfccc)" style="fill: #2a86b8; opacity: 0.18"/>
   </g>
   <g id="patch_71">
    <path d="M 362.16 277.92 
L 429.84 277.92 
L 429.84 308.16 
L 362.16 308.16 
z
" clip-path="url(#p7cdb8bfccc)" style="fill: #2a86b8; opacity: 0.18"/>
   </g>
   <g id="patch_72">
    <path d="M 432.72 277.92 
L 500.4 277.92 
L 500.4 308.16 
L 432.72 308.16 
z
" clip-path="url(#p7cdb8bfccc)" style="fill: #2a86b8; opacity: 0.18"/>
   </g>
   <g id="patch_73">
    <path d="M 79.92 311.04 
L 147.6 311.04 
L 147.6 341.28 
L 79.92 341.28 
z
" clip-path="url(#p7cdb8bfccc)" style="fill: #2a86b8; opacity: 0.28"/>
   </g>
   <g id="patch_74">
    <path d="M 150.48 311.04 
L 218.16 311.04 
L 218.16 341.28 
L 150.48 341.28 
z
" clip-path="url(#p7cdb8bfccc)" style="fill: #2a86b8; opacity: 0.28"/>
   </g>
   <g id="patch_75">
    <path d="M 221.04 311.04 
L 288.72 311.04 
L 288.72 341.28 
L 221.04 341.28 
z
" clip-path="url(#p7cdb8bfccc)" style="fill: #2a86b8; opacity: 0.28"/>
   </g>
   <g id="patch_76">
    <path d="M 291.6 311.04 
L 359.28 311.04 
L 359.28 341.28 
L 291.6 341.28 
z
" clip-path="url(#p7cdb8bfccc)" style="fill: #d1392e; opacity: 0.18"/>
   </g>
   <g id="patch_77">
    <path d="M 362.16 311.04 
L 429.84 311.04 
L 429.84 341.28 
L 362.16 341.28 
z
" clip-path="url(#p7cdb8bfccc)" style="fill: #2a86b8; opacity: 0.08"/>
   </g>
   <g id="patch_78">
    <path d="M 432.72 311.04 
L 500.4 311.04 
L 500.4 341.28 
L 432.72 341.28 
z
" clip-path="url(#p7cdb8bfccc)" style="fill: #2a86b8; opacity: 0.08"/>
   </g>
   <g id="patch_79">
    <path d="M 79.92 400.32 
L 147.6 400.32 
L 147.6 430.56 
L 79.92 430.56 
z
" clip-path="url(#p7cdb8bfccc)" style="fill: #2a86b8; opacity: 0.1"/>
   </g>
   <g id="patch_80">
    <path d="M 150.48 400.32 
L 218.16 400.32 
L 218.16 430.56 
L 150.48 430.56 
z
" clip-path="url(#p7cdb8bfccc)" style="fill: #2a86b8; opacity: 0.3"/>
   </g>
   <g id="patch_81">
    <path d="M 221.04 400.32 
L 288.72 400.32 
L 288.72 430.56 
L 221.04 430.56 
z
" clip-path="url(#p7cdb8bfccc)" style="fill: #2a86b8; opacity: 0.2"/>
   </g>
   <g id="patch_82">
    <path d="M 291.6 400.32 
L 359.28 400.32 
L 359.28 430.56 
L 291.6 430.56 
z
" clip-path="url(#p7cdb8bfccc)" style="fill: #d1392e; opacity: 0.16"/>
   </g>
   <g id="patch_83">
    <path d="M 362.16 400.32 
L 429.84 400.32 
L 429.84 430.56 
L 362.16 430.56 
z
" clip-path="url(#p7cdb8bfccc)" style="fill: #d1392e; opacity: 0.26"/>
   </g>
   <g id="patch_84">
    <path d="M 432.72 400.32 
L 500.4 400.32 
L 500.4 430.56 
L 432.72 430.56 
z
" clip-path="url(#p7cdb8bfccc)" style="fill: #2a86b8; opacity: 0.2"/>
   </g>
   <g id="patch_85">
    <path d="M 79.92 433.44 
L 147.6 433.44 
L 147.6 463.68 
L 79.92 463.68 
z
" clip-path="url(#p7cdb8bfccc)" style="fill: #2a86b8; opacity: 0.24"/>
   </g>
   <g id="patch_86">
    <path d="M 150.48 433.44 
L 218.16 433.44 
L 218.16 463.68 
L 150.48 463.68 
z
" clip-path="url(#p7cdb8bfccc)" style="fill: #d1392e; opacity: 0.12"/>
   </g>
   <g id="patch_87">
    <path d="M 221.04 433.44 
L 288.72 433.44 
L 288.72 463.68 
L 221.04 463.68 
z
" clip-path="url(#p7cdb8bfccc)" style="fill: #2a86b8; opacity: 0.24"/>
   </g>
   <g id="patch_88">
    <path d="M 291.6 433.44 
L 359.28 433.44 
L 359.28 463.68 
L 291.6 463.68 
z
" clip-path="url(#p7cdb8bfccc)" style="fill: #d1392e; opacity: 0.22"/>
   </g>
   <g id="patch_89">
    <path d="M 362.16 433.44 
L 429.84 433.44 
L 429.84 463.68 
L 362.16 463.68 
z
" clip-path="url(#p7cdb8bfccc)" style="fill: #2a86b8; opacity: 0.14"/>
   </g>
   <g id="patch_90">
    <path d="M 432.72 433.44 
L 500.4 433.44 
L 500.4 463.68 
L 432.72 463.68 
z
" clip-path="url(#p7cdb8bfccc)" style="fill: #d1392e; opacity: 0.12"/>
   </g>
   <g id="patch_91">
    <path d="M 79.92 466.56 
L 147.6 466.56 
L 147.6 496.8 
L 79.92 496.8 
z
" clip-path="url(#p7cdb8bfccc)" style="fill: #2a86b8; opacity: 0.3"/>
   </g>
   <g id="patch_92">
    <path d="M 150.48 466.56 
L 218.16 466.56 
L 218.16 496.8 
L 150.48 496.8 
z
" clip-path="url(#p7cdb8bfccc)" style="fill: #2a86b8; opacity: 0.3"/>
   </g>
   <g id="patch_93">
    <path d="M 221.04 466.56 
L 288.72 466.56 
L 288.72 496.8 
L 221.04 496.8 
z
" clip-path="url(#p7cdb8bfccc)" style="fill: #2a86b8; opacity: 0.2"/>
   </g>
   <g id="patch_94">
    <path d="M 291.6 466.56 
L 359.28 466.56 
L 359.28 496.8 
L 291.6 496.8 
z
" clip-path="url(#p7cdb8bfccc)" style="fill: #2a86b8; opacity: 0.3"/>
   </g>
   <g id="patch_95">
    <path d="M 362.16 466.56 
L 429.84 466.56 
L 429.84 496.8 
L 362.16 496.8 
z
" clip-path="url(#p7cdb8bfccc)" style="fill: #2a86b8; opacity: 0.3"/>
   </g>
   <g id="patch_96">
    <path d="M 432.72 466.56 
L 500.4 466.56 
L 500.4 496.8 
L 432.72 496.8 
z
" clip-path="url(#p7cdb8bfccc)" style="fill: #2a86b8; opacity: 0.3"/>
   </g>
   <g id="text_1">
    <text style="font-size: 8px; font-family: 'Roboto'; text-anchor: end; fill: #747d8b" x="72.72" y="20.9075" transform="rotate(-0 72.72 20.9075)">vs random</text>
   </g>
   <g id="text_2">
    <text style="font-size: 7.5px; font-family: 'Roboto'; text-anchor: middle; fill: #747d8b" x="78.48" y="33.730781" transform="rotate(-0 78.48 33.730781)">−100 pp</text>
   </g>
   <g id="text_3">
    <text style="font-size: 7.5px; font-family: 'Roboto'; text-anchor: middle; fill: #747d8b" x="122.76" y="33.730781" transform="rotate(-0 122.76 33.730781)">0</text>
   </g>
   <g id="text_4">
    <text style="font-size: 7.5px; font-family: 'Roboto'; text-anchor: middle; fill: #747d8b" x="167.04" y="33.730781" transform="rotate(-0 167.04 33.730781)">+100 pp</text>
   </g>
   <g id="text_5">
    <text style="font-weight: 700; font-size: 9.5px; font-family: 'Roboto'; text-anchor: start; fill: #20242d" x="2.88" y="58.757656" transform="rotate(-0 2.88 58.757656)">Single: classify success or failure</text>
   </g>
   <g id="text_6">
    <text style="font-size: 8px; font-family: 'Roboto'; text-anchor: middle; fill: #434a57" x="113.76" y="77.0675" transform="rotate(-0 113.76 77.0675)">Opus 5.5</text>
   </g>
   <g id="text_7">
    <text style="font-size: 8px; font-family: 'Roboto'; text-anchor: middle; fill: #434a57" x="184.32" y="77.0675" transform="rotate(-0 184.32 77.0675)">GPT-5.6 Sol</text>
   </g>
   <g id="text_8">
    <text style="font-size: 8px; font-family: 'Roboto'; text-anchor: middle; fill: #434a57" x="254.88" y="77.0675" transform="rotate(-0 254.88 77.0675)">GPT-6 Sol</text>
   </g>
   <g id="text_9">
    <text style="font-size: 8px; font-family: 'Roboto'; fill: #434a57" transform="translate(310.421875 72.955)">GLM-5.3</text>
    <text style="font-size: 8px; font-family: 'Roboto'; fill: #434a57" transform="translate(315.816875 81.18)">Flash</text>
   </g>
   <g id="text_10">
    <text style="font-size: 8px; font-family: 'Roboto'; text-anchor: middle; fill: #434a57" x="396" y="77.0675" transform="rotate(-0 396 77.0675)">GLM-5.3</text>
   </g>
   <g id="text_11">
    <text style="font-size: 8px; font-family: 'Roboto'; fill: #434a57" transform="translate(448.814375 68.8425)">DeepSeek</text>
    <text style="font-size: 8px; font-family: 'Roboto'; fill: #434a57" transform="translate(458.47 77.0675)">V4.1</text>
    <text style="font-size: 8px; font-family: 'Roboto'; fill: #434a57" transform="translate(456.936875 85.2925)">Flash</text>
   </g>
   <g id="text_12">
    <text style="font-size: 8.5px; font-family: 'Roboto'; text-anchor: end; fill: #434a57" x="72.72" y="106.724219" transform="rotate(-0 72.72 106.724219)">Fable 5.1</text>
   </g>
   <g id="text_13">
    <text style="font-weight: 700; font-size: 8.5px; font-family: 'Roboto'; text-anchor: middle; fill: #20242d" x="113.76" y="102.172419" transform="rotate(-0 113.76 102.172419)">67% (8/12)</text>
   </g>
   <g id="text_14">
    <text style="font-size: 7.5px; font-family: 'Roboto'; text-anchor: middle; fill: #434a57" x="113.76" y="113.737181" transform="rotate(-0 113.76 113.737181)">+17 pp · all 65%</text>
   </g>
   <g id="text_15">
    <text style="font-weight: 700; font-size: 8.5px; font-family: 'Roboto'; text-anchor: middle; fill: #20242d" x="184.32" y="102.172419" transform="rotate(-0 184.32 102.172419)">67% (8/12)</text>
   </g>
   <g id="text_16">
    <text style="font-size: 7.5px; font-family: 'Roboto'; text-anchor: middle; fill: #434a57" x="184.32" y="113.737181" transform="rotate(-0 184.32 113.737181)">+17 pp · all 62%</text>
   </g>
   <g id="text_17">
    <text style="font-weight: 700; font-size: 8.5px; font-family: 'Roboto'; text-anchor: middle; fill: #20242d" x="254.88" y="102.172419" transform="rotate(-0 254.88 102.172419)">50% (6/12)</text>
   </g>
   <g id="text_18">
    <text style="font-size: 7.5px; font-family: 'Roboto'; text-anchor: middle; fill: #434a57" x="254.88" y="113.737181" transform="rotate(-0 254.88 113.737181)">+0 pp · all 58%</text>
   </g>
   <g id="text_19">
    <text style="font-weight: 700; font-size: 8.5px; font-family: 'Roboto'; text-anchor: middle; fill: #20242d" x="325.44" y="102.172419" transform="rotate(-0 325.44 102.172419)">50% (6/12)</text>
   </g>
   <g id="text_20">
    <text style="font-size: 7.5px; font-family: 'Roboto'; text-anchor: middle; fill: #434a57" x="325.44" y="113.737181" transform="rotate(-0 325.44 113.737181)">+0 pp · all 58%</text>
   </g>
   <g id="text_21">
    <text style="font-weight: 700; font-size: 8.5px; font-family: 'Roboto'; text-anchor: middle; fill: #20242d" x="396" y="102.172419" transform="rotate(-0 396 102.172419)">50% (6/12)</text>
   </g>
   <g id="text_22">
    <text style="font-size: 7.5px; font-family: 'Roboto'; text-anchor: middle; fill: #434a57" x="396" y="113.737181" transform="rotate(-0 396 113.737181)">+0 pp · all 57%</text>
   </g>
   <g id="text_23">
    <text style="font-weight: 700; font-size: 8.5px; font-family: 'Roboto'; text-anchor: middle; fill: #20242d" x="466.56" y="102.172419" transform="rotate(-0 466.56 102.172419)">50% (6/12)</text>
   </g>
   <g id="text_24">
    <text style="font-size: 7.5px; font-family: 'Roboto'; text-anchor: middle; fill: #434a57" x="466.56" y="113.737181" transform="rotate(-0 466.56 113.737181)">+0 pp · all 58%</text>
   </g>
   <g id="text_25">
    <text style="font-size: 8.5px; font-family: 'Roboto'; text-anchor: end; fill: #434a57" x="72.72" y="139.844219" transform="rotate(-0 72.72 139.844219)">GLM-5.3</text>
   </g>
   <g id="text_26">
    <text style="font-weight: 700; font-size: 8.5px; font-family: 'Roboto'; text-anchor: middle; fill: #20242d" x="113.76" y="135.292419" transform="rotate(-0 113.76 135.292419)">75% (9/12)</text>
   </g>
   <g id="text_27">
    <text style="font-size: 7.5px; font-family: 'Roboto'; text-anchor: middle; fill: #434a57" x="113.76" y="146.857181" transform="rotate(-0 113.76 146.857181)">+25 pp · all 55%</text>
   </g>
   <g id="text_28">
    <text style="font-weight: 700; font-size: 8.5px; font-family: 'Roboto'; text-anchor: middle; fill: #20242d" x="184.32" y="135.292419" transform="rotate(-0 184.32 135.292419)">58% (7/12)</text>
   </g>
   <g id="text_29">
    <text style="font-size: 7.5px; font-family: 'Roboto'; text-anchor: middle; fill: #434a57" x="184.32" y="146.857181" transform="rotate(-0 184.32 146.857181)">+8 pp · all 60%</text>
   </g>
   <g id="text_30">
    <text style="font-weight: 700; font-size: 8.5px; font-family: 'Roboto'; text-anchor: middle; fill: #20242d" x="254.88" y="135.292419" transform="rotate(-0 254.88 135.292419)">75% (9/12)</text>
   </g>
   <g id="text_31">
    <text style="font-size: 7.5px; font-family: 'Roboto'; text-anchor: middle; fill: #434a57" x="254.88" y="146.857181" transform="rotate(-0 254.88 146.857181)">+25 pp · all 60%</text>
   </g>
   <g id="text_32">
    <text style="font-weight: 700; font-size: 8.5px; font-family: 'Roboto'; text-anchor: middle; fill: #20242d" x="325.44" y="135.292419" transform="rotate(-0 325.44 135.292419)">50% (6/12)</text>
   </g>
   <g id="text_33">
    <text style="font-size: 7.5px; font-family: 'Roboto'; text-anchor: middle; fill: #434a57" x="325.44" y="146.857181" transform="rotate(-0 325.44 146.857181)">+0 pp · all 55%</text>
   </g>
   <g id="text_34">
    <text style="font-weight: 700; font-size: 8.5px; font-family: 'Roboto'; text-anchor: middle; fill: #20242d" x="396" y="135.292419" transform="rotate(-0 396 135.292419)">50% (6/12)</text>
   </g>
   <g id="text_35">
    <text style="font-size: 7.5px; font-family: 'Roboto'; text-anchor: middle; fill: #434a57" x="396" y="146.857181" transform="rotate(-0 396 146.857181)">+0 pp · all 52%</text>
   </g>
   <g id="text_36">
    <text style="font-weight: 700; font-size: 8.5px; font-family: 'Roboto'; text-anchor: middle; fill: #20242d" x="466.56" y="135.292419" transform="rotate(-0 466.56 135.292419)">33% (4/12)</text>
   </g>
   <g id="text_37">
    <text style="font-size: 7.5px; font-family: 'Roboto'; text-anchor: middle; fill: #434a57" x="466.56" y="146.857181" transform="rotate(-0 466.56 146.857181)">-17 pp · all 43%</text>
   </g>
   <g id="text_38">
    <text style="font-size: 8.5px; font-family: 'Roboto'; text-anchor: end; fill: #434a57" x="72.72" y="172.964219" transform="rotate(-0 72.72 172.964219)">GPT-5.6 Sol</text>
   </g>
   <g id="text_39">
    <text style="font-weight: 700; font-size: 8.5px; font-family: 'Roboto'; text-anchor: middle; fill: #20242d" x="113.76" y="168.412419" transform="rotate(-0 113.76 168.412419)">83% (10/12)</text>
   </g>
   <g id="text_40">
    <text style="font-size: 7.5px; font-family: 'Roboto'; text-anchor: middle; fill: #434a57" x="113.76" y="179.977181" transform="rotate(-0 113.76 179.977181)">+33 pp · all 64%</text>
   </g>
   <g id="text_41">
    <text style="font-weight: 700; font-size: 8.5px; font-family: 'Roboto'; text-anchor: middle; fill: #20242d" x="184.32" y="168.412419" transform="rotate(-0 184.32 168.412419)">58% (7/12)</text>
   </g>
   <g id="text_42">
    <text style="font-size: 7.5px; font-family: 'Roboto'; text-anchor: middle; fill: #434a57" x="184.32" y="179.977181" transform="rotate(-0 184.32 179.977181)">+8 pp · all 57%</text>
   </g>
   <g id="text_43">
    <text style="font-weight: 700; font-size: 8.5px; font-family: 'Roboto'; text-anchor: middle; fill: #20242d" x="254.88" y="168.412419" transform="rotate(-0 254.88 168.412419)">67% (8/12)</text>
   </g>
   <g id="text_44">
    <text style="font-size: 7.5px; font-family: 'Roboto'; text-anchor: middle; fill: #434a57" x="254.88" y="179.977181" transform="rotate(-0 254.88 179.977181)">+17 pp · all 57%</text>
   </g>
   <g id="text_45">
    <text style="font-weight: 700; font-size: 8.5px; font-family: 'Roboto'; text-anchor: middle; fill: #20242d" x="325.44" y="168.412419" transform="rotate(-0 325.44 168.412419)">58% (7/12)</text>
   </g>
   <g id="text_46">
    <text style="font-size: 7.5px; font-family: 'Roboto'; text-anchor: middle; fill: #434a57" x="325.44" y="179.977181" transform="rotate(-0 325.44 179.977181)">+8 pp · all 54%</text>
   </g>
   <g id="text_47">
    <text style="font-weight: 700; font-size: 8.5px; font-family: 'Roboto'; text-anchor: middle; fill: #20242d" x="396" y="168.412419" transform="rotate(-0 396 168.412419)">50% (6/12)</text>
   </g>
   <g id="text_48">
    <text style="font-size: 7.5px; font-family: 'Roboto'; text-anchor: middle; fill: #434a57" x="396" y="179.977181" transform="rotate(-0 396 179.977181)">+0 pp · all 54%</text>
   </g>
   <g id="text_49">
    <text style="font-weight: 700; font-size: 8.5px; font-family: 'Roboto'; text-anchor: middle; fill: #20242d" x="466.56" y="168.412419" transform="rotate(-0 466.56 168.412419)">25% (3/12)</text>
   </g>
   <g id="text_50">
    <text style="font-size: 7.5px; font-family: 'Roboto'; text-anchor: middle; fill: #434a57" x="466.56" y="179.977181" transform="rotate(-0 466.56 179.977181)">-25 pp · all 46%</text>
   </g>
   <g id="text_51">
    <text style="font-weight: 700; font-size: 9.5px; font-family: 'Roboto'; text-anchor: start; fill: #20242d" x="2.88" y="214.326641" transform="rotate(-0 2.88 214.326641)">Pair: select the successful attempt</text>
   </g>
   <g id="text_52">
    <text style="font-size: 8px; font-family: 'Roboto'; text-anchor: middle; fill: #434a57" x="113.76" y="232.5875" transform="rotate(-0 113.76 232.5875)">Opus 5.5</text>
   </g>
   <g id="text_53">
    <text style="font-size: 8px; font-family: 'Roboto'; text-anchor: middle; fill: #434a57" x="184.32" y="232.5875" transform="rotate(-0 184.32 232.5875)">GPT-5.6 Sol</text>
   </g>
   <g id="text_54">
    <text style="font-size: 8px; font-family: 'Roboto'; text-anchor: middle; fill: #434a57" x="254.88" y="232.5875" transform="rotate(-0 254.88 232.5875)">GPT-6 Sol</text>
   </g>
   <g id="text_55">
    <text style="font-size: 8px; font-family: 'Roboto'; fill: #434a57" transform="translate(310.421875 228.475)">GLM-5.3</text>
    <text style="font-size: 8px; font-family: 'Roboto'; fill: #434a57" transform="translate(315.816875 236.7)">Flash</text>
   </g>
   <g id="text_56">
    <text style="font-size: 8px; font-family: 'Roboto'; text-anchor: middle; fill: #434a57" x="396" y="232.5875" transform="rotate(-0 396 232.5875)">GLM-5.3</text>
   </g>
   <g id="text_57">
    <text style="font-size: 8px; font-family: 'Roboto'; fill: #434a57" transform="translate(448.814375 224.3625)">DeepSeek</text>
    <text style="font-size: 8px; font-family: 'Roboto'; fill: #434a57" transform="translate(458.47 232.5875)">V4.1</text>
    <text style="font-size: 8px; font-family: 'Roboto'; fill: #434a57" transform="translate(456.936875 240.8125)">Flash</text>
   </g>
   <g id="text_58">
    <text style="font-size: 8.5px; font-family: 'Roboto'; text-anchor: end; fill: #434a57" x="72.72" y="262.244219" transform="rotate(-0 72.72 262.244219)">Fable 5.1</text>
   </g>
   <g id="text_59">
    <text style="font-weight: 700; font-size: 8.5px; font-family: 'Roboto'; text-anchor: middle; fill: #20242d" x="113.76" y="257.692419" transform="rotate(-0 113.76 257.692419)">83% (5/6)</text>
   </g>
   <g id="text_60">
    <text style="font-size: 7.5px; font-family: 'Roboto'; text-anchor: middle; fill: #434a57" x="113.76" y="269.257181" transform="rotate(-0 113.76 269.257181)">+33 pp · all 73%</text>
   </g>
   <g id="text_61">
    <text style="font-weight: 700; font-size: 8.5px; font-family: 'Roboto'; text-anchor: middle; fill: #20242d" x="184.32" y="257.692419" transform="rotate(-0 184.32 257.692419)">67% (4/6)</text>
   </g>
   <g id="text_62">
    <text style="font-size: 7.5px; font-family: 'Roboto'; text-anchor: middle; fill: #434a57" x="184.32" y="269.257181" transform="rotate(-0 184.32 269.257181)">+17 pp · all 60%</text>
   </g>
   <g id="text_63">
    <text style="font-weight: 700; font-size: 8.5px; font-family: 'Roboto'; text-anchor: middle; fill: #20242d" x="254.88" y="257.692419" transform="rotate(-0 254.88 257.692419)">83% (5/6)</text>
   </g>
   <g id="text_64">
    <text style="font-size: 7.5px; font-family: 'Roboto'; text-anchor: middle; fill: #434a57" x="254.88" y="269.257181" transform="rotate(-0 254.88 269.257181)">+33 pp · all 73%</text>
   </g>
   <g id="text_65">
    <text style="font-weight: 700; font-size: 8.5px; font-family: 'Roboto'; text-anchor: middle; fill: #20242d" x="325.44" y="257.692419" transform="rotate(-0 325.44 257.692419)">67% (4/6)</text>
   </g>
   <g id="text_66">
    <text style="font-size: 7.5px; font-family: 'Roboto'; text-anchor: middle; fill: #434a57" x="325.44" y="269.257181" transform="rotate(-0 325.44 269.257181)">+17 pp · all 63%</text>
   </g>
   <g id="text_67">
    <text style="font-weight: 700; font-size: 8.5px; font-family: 'Roboto'; text-anchor: middle; fill: #20242d" x="396" y="257.692419" transform="rotate(-0 396 257.692419)">33% (2/6)</text>
   </g>
   <g id="text_68">
    <text style="font-size: 7.5px; font-family: 'Roboto'; text-anchor: middle; fill: #434a57" x="396" y="269.257181" transform="rotate(-0 396 269.257181)">-17 pp · all 70%</text>
   </g>
   <g id="text_69">
    <text style="font-weight: 700; font-size: 8.5px; font-family: 'Roboto'; text-anchor: middle; fill: #20242d" x="466.56" y="257.692419" transform="rotate(-0 466.56 257.692419)">67% (4/6)</text>
   </g>
   <g id="text_70">
    <text style="font-size: 7.5px; font-family: 'Roboto'; text-anchor: middle; fill: #434a57" x="466.56" y="269.257181" transform="rotate(-0 466.56 269.257181)">+17 pp · all 50%</text>
   </g>
   <g id="text_71">
    <text style="font-size: 8.5px; font-family: 'Roboto'; text-anchor: end; fill: #434a57" x="72.72" y="295.364219" transform="rotate(-0 72.72 295.364219)">GLM-5.3</text>
   </g>
   <g id="text_72">
    <text style="font-weight: 700; font-size: 8.5px; font-family: 'Roboto'; text-anchor: middle; fill: #20242d" x="113.76" y="290.812419" transform="rotate(-0 113.76 290.812419)">83% (5/6)</text>
   </g>
   <g id="text_73">
    <text style="font-size: 7.5px; font-family: 'Roboto'; text-anchor: middle; fill: #434a57" x="113.76" y="302.377181" transform="rotate(-0 113.76 302.377181)">+33 pp · all 71%</text>
   </g>
   <g id="text_74">
    <text style="font-weight: 700; font-size: 8.5px; font-family: 'Roboto'; text-anchor: middle; fill: #20242d" x="184.32" y="290.812419" transform="rotate(-0 184.32 290.812419)">50% (3/6)</text>
   </g>
   <g id="text_75">
    <text style="font-size: 7.5px; font-family: 'Roboto'; text-anchor: middle; fill: #434a57" x="184.32" y="302.377181" transform="rotate(-0 184.32 302.377181)">+0 pp · all 57%</text>
   </g>
   <g id="text_76">
    <text style="font-weight: 700; font-size: 8.5px; font-family: 'Roboto'; text-anchor: middle; fill: #20242d" x="254.88" y="290.812419" transform="rotate(-0 254.88 290.812419)">100% (6/6)</text>
   </g>
   <g id="text_77">
    <text style="font-size: 7.5px; font-family: 'Roboto'; text-anchor: middle; fill: #434a57" x="254.88" y="302.377181" transform="rotate(-0 254.88 302.377181)">+50 pp · all 76%</text>
   </g>
   <g id="text_78">
    <text style="font-weight: 700; font-size: 8.5px; font-family: 'Roboto'; text-anchor: middle; fill: #20242d" x="325.44" y="290.812419" transform="rotate(-0 325.44 290.812419)">67% (4/6)</text>
   </g>
   <g id="text_79">
    <text style="font-size: 7.5px; font-family: 'Roboto'; text-anchor: middle; fill: #434a57" x="325.44" y="302.377181" transform="rotate(-0 325.44 302.377181)">+17 pp · all 57%</text>
   </g>
   <g id="text_80">
    <text style="font-weight: 700; font-size: 8.5px; font-family: 'Roboto'; text-anchor: middle; fill: #20242d" x="396" y="290.812419" transform="rotate(-0 396 290.812419)">67% (4/6)</text>
   </g>
   <g id="text_81">
    <text style="font-size: 7.5px; font-family: 'Roboto'; text-anchor: middle; fill: #434a57" x="396" y="302.377181" transform="rotate(-0 396 302.377181)">+17 pp · all 71%</text>
   </g>
   <g id="text_82">
    <text style="font-weight: 700; font-size: 8.5px; font-family: 'Roboto'; text-anchor: middle; fill: #20242d" x="466.56" y="290.812419" transform="rotate(-0 466.56 290.812419)">67% (4/6)</text>
   </g>
   <g id="text_83">
    <text style="font-size: 7.5px; font-family: 'Roboto'; text-anchor: middle; fill: #434a57" x="466.56" y="302.377181" transform="rotate(-0 466.56 302.377181)">+17 pp · all 62%</text>
   </g>
   <g id="text_84">
    <text style="font-size: 8.5px; font-family: 'Roboto'; text-anchor: end; fill: #434a57" x="72.72" y="328.484219" transform="rotate(-0 72.72 328.484219)">GPT-5.6 Sol</text>
   </g>
   <g id="text_85">
    <text style="font-weight: 700; font-size: 8.5px; font-family: 'Roboto'; text-anchor: middle; fill: #20242d" x="113.76" y="323.932419" transform="rotate(-0 113.76 323.932419)">83% (5/6)</text>
   </g>
   <g id="text_86">
    <text style="font-size: 7.5px; font-family: 'Roboto'; text-anchor: middle; fill: #434a57" x="113.76" y="335.497181" transform="rotate(-0 113.76 335.497181)">+33 pp · all 86%</text>
   </g>
   <g id="text_87">
    <text style="font-weight: 700; font-size: 8.5px; font-family: 'Roboto'; text-anchor: middle; fill: #20242d" x="184.32" y="323.932419" transform="rotate(-0 184.32 323.932419)">83% (5/6)</text>
   </g>
   <g id="text_88">
    <text style="font-size: 7.5px; font-family: 'Roboto'; text-anchor: middle; fill: #434a57" x="184.32" y="335.497181" transform="rotate(-0 184.32 335.497181)">+33 pp · all 68%</text>
   </g>
   <g id="text_89">
    <text style="font-weight: 700; font-size: 8.5px; font-family: 'Roboto'; text-anchor: middle; fill: #20242d" x="254.88" y="323.932419" transform="rotate(-0 254.88 323.932419)">83% (5/6)</text>
   </g>
   <g id="text_90">
    <text style="font-size: 7.5px; font-family: 'Roboto'; text-anchor: middle; fill: #434a57" x="254.88" y="335.497181" transform="rotate(-0 254.88 335.497181)">+33 pp · all 75%</text>
   </g>
   <g id="text_91">
    <text style="font-weight: 700; font-size: 8.5px; font-family: 'Roboto'; text-anchor: middle; fill: #20242d" x="325.44" y="323.932419" transform="rotate(-0 325.44 323.932419)">33% (2/6)</text>
   </g>
   <g id="text_92">
    <text style="font-size: 7.5px; font-family: 'Roboto'; text-anchor: middle; fill: #434a57" x="325.44" y="335.497181" transform="rotate(-0 325.44 335.497181)">-17 pp · all 68%</text>
   </g>
   <g id="text_93">
    <text style="font-weight: 700; font-size: 8.5px; font-family: 'Roboto'; text-anchor: middle; fill: #20242d" x="396" y="323.932419" transform="rotate(-0 396 323.932419)">50% (3/6)</text>
   </g>
   <g id="text_94">
    <text style="font-size: 7.5px; font-family: 'Roboto'; text-anchor: middle; fill: #434a57" x="396" y="335.497181" transform="rotate(-0 396 335.497181)">+0 pp · all 57%</text>
   </g>
   <g id="text_95">
    <text style="font-weight: 700; font-size: 8.5px; font-family: 'Roboto'; text-anchor: middle; fill: #20242d" x="466.56" y="323.932419" transform="rotate(-0 466.56 323.932419)">50% (3/6)</text>
   </g>
   <g id="text_96">
    <text style="font-size: 7.5px; font-family: 'Roboto'; text-anchor: middle; fill: #434a57" x="466.56" y="335.497181" transform="rotate(-0 466.56 335.497181)">+0 pp · all 50%</text>
   </g>
   <g id="text_97">
    <text style="font-weight: 700; font-size: 9.5px; font-family: 'Roboto'; text-anchor: start; fill: #20242d" x="2.88" y="369.797656" transform="rotate(-0 2.88 369.797656)">Five: select any successful attempt</text>
   </g>
   <g id="text_98">
    <text style="font-size: 8px; font-family: 'Roboto'; text-anchor: middle; fill: #434a57" x="113.76" y="388.1075" transform="rotate(-0 113.76 388.1075)">Opus 5.5</text>
   </g>
   <g id="text_99">
    <text style="font-size: 8px; font-family: 'Roboto'; text-anchor: middle; fill: #434a57" x="184.32" y="388.1075" transform="rotate(-0 184.32 388.1075)">GPT-5.6 Sol</text>
   </g>
   <g id="text_100">
    <text style="font-size: 8px; font-family: 'Roboto'; text-anchor: middle; fill: #434a57" x="254.88" y="388.1075" transform="rotate(-0 254.88 388.1075)">GPT-6 Sol</text>
   </g>
   <g id="text_101">
    <text style="font-size: 8px; font-family: 'Roboto'; fill: #434a57" transform="translate(310.421875 383.995)">GLM-5.3</text>
    <text style="font-size: 8px; font-family: 'Roboto'; fill: #434a57" transform="translate(315.816875 392.22)">Flash</text>
   </g>
   <g id="text_102">
    <text style="font-size: 8px; font-family: 'Roboto'; text-anchor: middle; fill: #434a57" x="396" y="388.1075" transform="rotate(-0 396 388.1075)">GLM-5.3</text>
   </g>
   <g id="text_103">
    <text style="font-size: 8px; font-family: 'Roboto'; fill: #434a57" transform="translate(448.814375 379.8825)">DeepSeek</text>
    <text style="font-size: 8px; font-family: 'Roboto'; fill: #434a57" transform="translate(458.47 388.1075)">V4.1</text>
    <text style="font-size: 8px; font-family: 'Roboto'; fill: #434a57" transform="translate(456.936875 396.3325)">Flash</text>
   </g>
   <g id="text_104">
    <text style="font-size: 8.5px; font-family: 'Roboto'; text-anchor: end; fill: #434a57" x="72.72" y="417.764219" transform="rotate(-0 72.72 417.764219)">Fable 5.1</text>
   </g>
   <g id="text_105">
    <text style="font-weight: 700; font-size: 8.5px; font-family: 'Roboto'; text-anchor: middle; fill: #20242d" x="113.76" y="413.212419" transform="rotate(-0 113.76 413.212419)">67% (4/6)</text>
   </g>
   <g id="text_106">
    <text style="font-size: 7.5px; font-family: 'Roboto'; text-anchor: middle; fill: #434a57" x="113.76" y="424.777181" transform="rotate(-0 113.76 424.777181)">+3 pp · all 83%</text>
   </g>
   <g id="text_107">
    <text style="font-weight: 700; font-size: 8.5px; font-family: 'Roboto'; text-anchor: middle; fill: #20242d" x="184.32" y="413.212419" transform="rotate(-0 184.32 413.212419)">100% (6/6)</text>
   </g>
   <g id="text_108">
    <text style="font-size: 7.5px; font-family: 'Roboto'; text-anchor: middle; fill: #434a57" x="184.32" y="424.777181" transform="rotate(-0 184.32 424.777181)">+37 pp · all 87%</text>
   </g>
   <g id="text_109">
    <text style="font-weight: 700; font-size: 8.5px; font-family: 'Roboto'; text-anchor: middle; fill: #20242d" x="254.88" y="413.212419" transform="rotate(-0 254.88 413.212419)">83% (5/6)</text>
   </g>
   <g id="text_110">
    <text style="font-size: 7.5px; font-family: 'Roboto'; text-anchor: middle; fill: #434a57" x="254.88" y="424.777181" transform="rotate(-0 254.88 424.777181)">+20 pp · all 77%</text>
   </g>
   <g id="text_111">
    <text style="font-weight: 700; font-size: 8.5px; font-family: 'Roboto'; text-anchor: middle; fill: #20242d" x="325.44" y="413.212419" transform="rotate(-0 325.44 413.212419)">50% (3/6)</text>
   </g>
   <g id="text_112">
    <text style="font-size: 7.5px; font-family: 'Roboto'; text-anchor: middle; fill: #434a57" x="325.44" y="424.777181" transform="rotate(-0 325.44 424.777181)">-13 pp · all 73%</text>
   </g>
   <g id="text_113">
    <text style="font-weight: 700; font-size: 8.5px; font-family: 'Roboto'; text-anchor: middle; fill: #20242d" x="396" y="413.212419" transform="rotate(-0 396 413.212419)">33% (2/6)</text>
   </g>
   <g id="text_114">
    <text style="font-size: 7.5px; font-family: 'Roboto'; text-anchor: middle; fill: #434a57" x="396" y="424.777181" transform="rotate(-0 396 424.777181)">-30 pp · all 63%</text>
   </g>
   <g id="text_115">
    <text style="font-weight: 700; font-size: 8.5px; font-family: 'Roboto'; text-anchor: middle; fill: #20242d" x="466.56" y="413.212419" transform="rotate(-0 466.56 413.212419)">83% (5/6)</text>
   </g>
   <g id="text_116">
    <text style="font-size: 7.5px; font-family: 'Roboto'; text-anchor: middle; fill: #434a57" x="466.56" y="424.777181" transform="rotate(-0 466.56 424.777181)">+20 pp · all 67%</text>
   </g>
   <g id="text_117">
    <text style="font-size: 8.5px; font-family: 'Roboto'; text-anchor: end; fill: #434a57" x="72.72" y="450.884219" transform="rotate(-0 72.72 450.884219)">GLM-5.3</text>
   </g>
   <g id="text_118">
    <text style="font-weight: 700; font-size: 8.5px; font-family: 'Roboto'; text-anchor: middle; fill: #20242d" x="113.76" y="446.332419" transform="rotate(-0 113.76 446.332419)">83% (5/6)</text>
   </g>
   <g id="text_119">
    <text style="font-size: 7.5px; font-family: 'Roboto'; text-anchor: middle; fill: #434a57" x="113.76" y="457.897181" transform="rotate(-0 113.76 457.897181)">+27 pp · all 81%</text>
   </g>
   <g id="text_120">
    <text style="font-weight: 700; font-size: 8.5px; font-family: 'Roboto'; text-anchor: middle; fill: #20242d" x="184.32" y="446.332419" transform="rotate(-0 184.32 446.332419)">50% (3/6)</text>
   </g>
   <g id="text_121">
    <text style="font-size: 7.5px; font-family: 'Roboto'; text-anchor: middle; fill: #434a57" x="184.32" y="457.897181" transform="rotate(-0 184.32 457.897181)">-7 pp · all 67%</text>
   </g>
   <g id="text_122">
    <text style="font-weight: 700; font-size: 8.5px; font-family: 'Roboto'; text-anchor: middle; fill: #20242d" x="254.88" y="446.332419" transform="rotate(-0 254.88 446.332419)">83% (5/6)</text>
   </g>
   <g id="text_123">
    <text style="font-size: 7.5px; font-family: 'Roboto'; text-anchor: middle; fill: #434a57" x="254.88" y="457.897181" transform="rotate(-0 254.88 457.897181)">+27 pp · all 81%</text>
   </g>
   <g id="text_124">
    <text style="font-weight: 700; font-size: 8.5px; font-family: 'Roboto'; text-anchor: middle; fill: #20242d" x="325.44" y="446.332419" transform="rotate(-0 325.44 446.332419)">33% (2/6)</text>
   </g>
   <g id="text_125">
    <text style="font-size: 7.5px; font-family: 'Roboto'; text-anchor: middle; fill: #434a57" x="325.44" y="457.897181" transform="rotate(-0 325.44 457.897181)">-23 pp · all 62%</text>
   </g>
   <g id="text_126">
    <text style="font-weight: 700; font-size: 8.5px; font-family: 'Roboto'; text-anchor: middle; fill: #20242d" x="396" y="446.332419" transform="rotate(-0 396 446.332419)">67% (4/6)</text>
   </g>
   <g id="text_127">
    <text style="font-size: 7.5px; font-family: 'Roboto'; text-anchor: middle; fill: #434a57" x="396" y="457.897181" transform="rotate(-0 396 457.897181)">+10 pp · all 67%</text>
   </g>
   <g id="text_128">
    <text style="font-weight: 700; font-size: 8.5px; font-family: 'Roboto'; text-anchor: middle; fill: #20242d" x="466.56" y="446.332419" transform="rotate(-0 466.56 446.332419)">50% (3/6)</text>
   </g>
   <g id="text_129">
    <text style="font-size: 7.5px; font-family: 'Roboto'; text-anchor: middle; fill: #434a57" x="466.56" y="457.897181" transform="rotate(-0 466.56 457.897181)">-7 pp · all 62%</text>
   </g>
   <g id="text_130">
    <text style="font-size: 8.5px; font-family: 'Roboto'; text-anchor: end; fill: #434a57" x="72.72" y="484.004219" transform="rotate(-0 72.72 484.004219)">GPT-5.6 Sol</text>
   </g>
   <g id="text_131">
    <text style="font-weight: 700; font-size: 8.5px; font-family: 'Roboto'; text-anchor: middle; fill: #20242d" x="113.76" y="479.452419" transform="rotate(-0 113.76 479.452419)">100% (6/6)</text>
   </g>
   <g id="text_132">
    <text style="font-size: 7.5px; font-family: 'Roboto'; text-anchor: middle; fill: #434a57" x="113.76" y="491.017181" transform="rotate(-0 113.76 491.017181)">+37 pp · all 82%</text>
   </g>
   <g id="text_133">
    <text style="font-weight: 700; font-size: 8.5px; font-family: 'Roboto'; text-anchor: middle; fill: #20242d" x="184.32" y="479.452419" transform="rotate(-0 184.32 479.452419)">100% (6/6)</text>
   </g>
   <g id="text_134">
    <text style="font-size: 7.5px; font-family: 'Roboto'; text-anchor: middle; fill: #434a57" x="184.32" y="491.017181" transform="rotate(-0 184.32 491.017181)">+37 pp · all 86%</text>
   </g>
   <g id="text_135">
    <text style="font-weight: 700; font-size: 8.5px; font-family: 'Roboto'; text-anchor: middle; fill: #20242d" x="254.88" y="479.452419" transform="rotate(-0 254.88 479.452419)">83% (5/6)</text>
   </g>
   <g id="text_136">
    <text style="font-size: 7.5px; font-family: 'Roboto'; text-anchor: middle; fill: #434a57" x="254.88" y="491.017181" transform="rotate(-0 254.88 491.017181)">+20 pp · all 75%</text>
   </g>
   <g id="text_137">
    <text style="font-weight: 700; font-size: 8.5px; font-family: 'Roboto'; text-anchor: middle; fill: #20242d" x="325.44" y="479.452419" transform="rotate(-0 325.44 479.452419)">100% (6/6)</text>
   </g>
   <g id="text_138">
    <text style="font-size: 7.5px; font-family: 'Roboto'; text-anchor: middle; fill: #434a57" x="325.44" y="491.017181" transform="rotate(-0 325.44 491.017181)">+37 pp · all 75%</text>
   </g>
   <g id="text_139">
    <text style="font-weight: 700; font-size: 8.5px; font-family: 'Roboto'; text-anchor: middle; fill: #20242d" x="396" y="479.452419" transform="rotate(-0 396 479.452419)">100% (6/6)</text>
   </g>
   <g id="text_140">
    <text style="font-size: 7.5px; font-family: 'Roboto'; text-anchor: middle; fill: #434a57" x="396" y="491.017181" transform="rotate(-0 396 491.017181)">+37 pp · all 64%</text>
   </g>
   <g id="text_141">
    <text style="font-weight: 700; font-size: 8.5px; font-family: 'Roboto'; text-anchor: middle; fill: #20242d" x="466.56" y="479.452419" transform="rotate(-0 466.56 479.452419)">100% (6/6)</text>
   </g>
   <g id="text_142">
    <text style="font-size: 7.5px; font-family: 'Roboto'; text-anchor: middle; fill: #434a57" x="466.56" y="491.017181" transform="rotate(-0 466.56 491.017181)">+37 pp · all 46%</text>
   </g>
  </g>
 </g>
 <defs>
  <clipPath id="p7cdb8bfccc">
   <rect x="2.88" y="2.88" width="498.96" height="506.16"/>
  </clipPath>
 </defs>
</svg>
