<?xml version="1.0" encoding="utf-8" standalone="no"?>
<!DOCTYPE svg PUBLIC "-//W3C//DTD SVG 1.1//EN"
  "http://www.w3.org/Graphics/SVG/1.1/DTD/svg11.dtd">
<svg xmlns:xlink="http://www.w3.org/1999/xlink" width="549.95976pt" height="225.95976pt" viewBox="0 0 549.95976 225.95976" xmlns="http://www.w3.org/2000/svg" version="1.1">
 <metadata>
  <rdf:RDF xmlns:dc="http://purl.org/dc/elements/1.1/" xmlns:cc="http://creativecommons.org/ns#" xmlns:rdf="http://www.w3.org/1999/02/22-rdf-syntax-ns#">
   <cc:Work>
    <dc:type rdf:resource="http://purl.org/dc/dcmitype/StillImage"/>
    <dc:description>Whole-job success on all 66 tasks per source: pass@1, the reconstructed success when Opus 5.5 or GPT-5.6 Sol picks one of five attempts, and oracle pass@5.</dc:description>
    <dc:format>image/svg+xml</dc:format>
    <dc:creator>
     <cc:Agent>
      <dc:title>generate_second_life_tb4_figures.py</dc:title>
     </cc:Agent>
    </dc:creator>
   </cc:Work>
  </rdf:RDF>
 </metadata>
 <defs>
  <style type="text/css">*{stroke-linejoin: round; stroke-linecap: butt}</style>
 </defs>
 <g id="figure_1">
  <g id="patch_1">
   <path d="M 0 225.95976 
L 549.95976 225.95976 
L 549.95976 0 
L 0 0 
L 0 225.95976 
z
" style="fill: none"/>
  </g>
  <g id="axes_1">
   <g id="patch_2">
    <path d="M 5.88024 208.025073 
L 547.07976 208.025073 
L 547.07976 28.366189 
L 5.88024 28.366189 
L 5.88024 208.025073 
z
" style="fill: none"/>
   </g>
   <g id="matplotlib.axis_1">
    <g id="xtick_1">
     <g id="line2d_1"/>
     <g id="text_1">
      <text style="font-style: italic; font-size: 9.5px; font-family: 'Roboto'; text-anchor: middle; fill: #434a57" x="82.013769" y="221.150073" transform="rotate(-0 82.013769 221.150073)">GPT-6 Astra</text>
     </g>
    </g>
    <g id="xtick_2">
     <g id="line2d_2"/>
     <g id="text_2">
      <text style="font-style: italic; font-size: 9.5px; font-family: 'Roboto'; text-anchor: middle; fill: #434a57" x="211.657923" y="221.150073" transform="rotate(-0 211.657923 221.150073)">Fable 5.1</text>
     </g>
    </g>
    <g id="xtick_3">
     <g id="line2d_3"/>
     <g id="text_3">
      <text style="font-style: italic; font-size: 9.5px; font-family: 'Roboto'; text-anchor: middle; fill: #434a57" x="341.302077" y="221.150073" transform="rotate(-0 341.302077 221.150073)">GLM-5.3</text>
     </g>
    </g>
    <g id="xtick_4">
     <g id="line2d_4"/>
     <g id="text_4">
      <text style="font-style: italic; font-size: 9.5px; font-family: 'Roboto'; text-anchor: middle; fill: #434a57" x="470.946231" y="221.150073" transform="rotate(-0 470.946231 221.150073)">GPT-5.6 Sol</text>
     </g>
    </g>
   </g>
   <g id="matplotlib.axis_2"/>
   <g id="patch_3">
    <path d="M 30.480218 208.025073 
L 53.816166 208.025073 
L 53.816166 89.242339 
L 30.480218 89.242339 
z
" clip-path="url(#p37c7d1a783)" style="fill: #747d8b; opacity: 0.42"/>
   </g>
   <g id="patch_4">
    <path d="M 57.05727 208.025073 
L 80.393217 208.025073 
L 80.393217 81.199759 
L 57.05727 81.199759 
z
" clip-path="url(#p37c7d1a783)" style="fill: #d97349"/>
   </g>
   <g id="patch_5">
    <path d="M 83.634321 208.025073 
L 106.970269 208.025073 
L 106.970269 81.199759 
L 83.634321 81.199759 
z
" clip-path="url(#p37c7d1a783)" style="fill: #34a77e"/>
   </g>
   <g id="patch_6">
    <path d="M 110.211373 208.025073 
L 133.54732 208.025073 
L 133.54732 62.639957 
L 110.211373 62.639957 
z
" clip-path="url(#p37c7d1a783)" style="fill: #747d8b; opacity: 0.24"/>
   </g>
   <g id="patch_7">
    <path d="M 160.124372 208.025073 
L 183.46032 208.025073 
L 183.46032 89.861 
L 160.124372 89.861 
z
" clip-path="url(#p37c7d1a783)" style="fill: #747d8b; opacity: 0.42"/>
   </g>
   <g id="patch_8">
    <path d="M 186.701423 208.025073 
L 210.037371 208.025073 
L 210.037371 68.207897 
L 186.701423 68.207897 
z
" clip-path="url(#p37c7d1a783)" style="fill: #d97349"/>
   </g>
   <g id="patch_9">
    <path d="M 213.278475 208.025073 
L 236.614423 208.025073 
L 236.614423 65.114597 
L 213.278475 65.114597 
z
" clip-path="url(#p37c7d1a783)" style="fill: #34a77e"/>
   </g>
   <g id="patch_10">
    <path d="M 239.855527 208.025073 
L 263.191474 208.025073 
L 263.191474 47.173455 
L 239.855527 47.173455 
z
" clip-path="url(#p37c7d1a783)" style="fill: #747d8b; opacity: 0.24"/>
   </g>
   <g id="patch_11">
    <path d="M 289.768526 208.025073 
L 313.104473 208.025073 
L 313.104473 122.649983 
L 289.768526 122.649983 
z
" clip-path="url(#p37c7d1a783)" style="fill: #747d8b; opacity: 0.42"/>
   </g>
   <g id="patch_12">
    <path d="M 316.345577 208.025073 
L 339.681525 208.025073 
L 339.681525 105.327501 
L 316.345577 105.327501 
z
" clip-path="url(#p37c7d1a783)" style="fill: #d97349"/>
   </g>
   <g id="patch_13">
    <path d="M 342.922629 208.025073 
L 366.258577 208.025073 
L 366.258577 114.607402 
L 342.922629 114.607402 
z
" clip-path="url(#p37c7d1a783)" style="fill: #34a77e"/>
   </g>
   <g id="patch_14">
    <path d="M 369.49968 208.025073 
L 392.835628 208.025073 
L 392.835628 90.47966 
L 369.49968 90.47966 
z
" clip-path="url(#p37c7d1a783)" style="fill: #747d8b; opacity: 0.24"/>
   </g>
   <g id="patch_15">
    <path d="M 419.41268 208.025073 
L 442.748627 208.025073 
L 442.748627 131.929884 
L 419.41268 131.929884 
z
" clip-path="url(#p37c7d1a783)" style="fill: #747d8b; opacity: 0.42"/>
   </g>
   <g id="patch_16">
    <path d="M 445.989731 208.025073 
L 469.325679 208.025073 
L 469.325679 106.564821 
L 445.989731 106.564821 
z
" clip-path="url(#p37c7d1a783)" style="fill: #d97349"/>
   </g>
   <g id="patch_17">
    <path d="M 472.566783 208.025073 
L 495.90273 208.025073 
L 495.90273 103.471521 
L 472.566783 103.471521 
z
" clip-path="url(#p37c7d1a783)" style="fill: #34a77e"/>
   </g>
   <g id="patch_18">
    <path d="M 499.143834 208.025073 
L 522.479782 208.025073 
L 522.479782 84.293059 
L 499.143834 84.293059 
z
" clip-path="url(#p37c7d1a783)" style="fill: #747d8b; opacity: 0.24"/>
   </g>
   <g id="text_5">
    <text style="font-size: 8.5px; font-family: 'Roboto'; text-anchor: middle; fill: #747d8b" x="42.148192" y="84.515777" transform="rotate(-0 42.148192 84.515777)">58.2</text>
   </g>
   <g id="text_6">
    <text style="font-weight: 700; font-size: 8.5px; font-family: 'Roboto'; text-anchor: middle; fill: #20242d" x="68.725244" y="76.473196" transform="rotate(-0 68.725244 76.473196)">62.1</text>
   </g>
   <g id="text_7">
    <text style="font-weight: 700; font-size: 8.5px; font-family: 'Roboto'; text-anchor: middle; fill: #20242d" x="95.302295" y="76.473196" transform="rotate(-0 95.302295 76.473196)">62.1</text>
   </g>
   <g id="text_8">
    <text style="font-size: 8.5px; font-family: 'Roboto'; text-anchor: middle; fill: #747d8b" x="121.879347" y="57.913394" transform="rotate(-0 121.879347 57.913394)">71.2</text>
   </g>
   <g id="text_9">
    <text style="font-size: 8.5px; font-family: 'Roboto'; text-anchor: middle; fill: #747d8b" x="171.792346" y="85.134437" transform="rotate(-0 171.792346 85.134437)">57.9</text>
   </g>
   <g id="text_10">
    <text style="font-weight: 700; font-size: 8.5px; font-family: 'Roboto'; text-anchor: middle; fill: #20242d" x="198.369397" y="63.481335" transform="rotate(-0 198.369397 63.481335)">68.5</text>
   </g>
   <g id="text_11">
    <text style="font-weight: 700; font-size: 8.5px; font-family: 'Roboto'; text-anchor: middle; fill: #20242d" x="224.946449" y="60.388034" transform="rotate(-0 224.946449 60.388034)">70.0</text>
   </g>
   <g id="text_12">
    <text style="font-size: 8.5px; font-family: 'Roboto'; text-anchor: middle; fill: #747d8b" x="251.5235" y="42.446892" transform="rotate(-0 251.5235 42.446892)">78.8</text>
   </g>
   <g id="text_13">
    <text style="font-size: 8.5px; font-family: 'Roboto'; text-anchor: middle; fill: #747d8b" x="301.4365" y="117.923421" transform="rotate(-0 301.4365 117.923421)">41.8</text>
   </g>
   <g id="text_14">
    <text style="font-weight: 700; font-size: 8.5px; font-family: 'Roboto'; text-anchor: middle; fill: #20242d" x="328.013551" y="100.600939" transform="rotate(-0 328.013551 100.600939)">50.3</text>
   </g>
   <g id="text_15">
    <text style="font-weight: 700; font-size: 8.5px; font-family: 'Roboto'; text-anchor: middle; fill: #20242d" x="354.590603" y="109.88084" transform="rotate(-0 354.590603 109.88084)">45.8</text>
   </g>
   <g id="text_16">
    <text style="font-size: 8.5px; font-family: 'Roboto'; text-anchor: middle; fill: #747d8b" x="381.167654" y="85.753097" transform="rotate(-0 381.167654 85.753097)">57.6</text>
   </g>
   <g id="text_17">
    <text style="font-size: 8.5px; font-family: 'Roboto'; text-anchor: middle; fill: #747d8b" x="431.080653" y="127.203322" transform="rotate(-0 431.080653 127.203322)">37.3</text>
   </g>
   <g id="text_18">
    <text style="font-weight: 700; font-size: 8.5px; font-family: 'Roboto'; text-anchor: middle; fill: #20242d" x="457.657705" y="101.838259" transform="rotate(-0 457.657705 101.838259)">49.7</text>
   </g>
   <g id="text_19">
    <text style="font-weight: 700; font-size: 8.5px; font-family: 'Roboto'; text-anchor: middle; fill: #20242d" x="484.234756" y="98.744959" transform="rotate(-0 484.234756 98.744959)">51.2</text>
   </g>
   <g id="text_20">
    <text style="font-size: 8.5px; font-family: 'Roboto'; text-anchor: middle; fill: #747d8b" x="510.811808" y="79.566496" transform="rotate(-0 510.811808 79.566496)">60.6</text>
   </g>
   <g id="line2d_5">
    <path d="M 5.88024 208.025073 
L 547.07976 208.025073 
" clip-path="url(#p37c7d1a783)" style="fill: none; stroke: #dfe4e9; stroke-linecap: square"/>
   </g>
  </g>
  <g id="legend_1">
   <g id="patch_19">
    <path d="M 3.6 10.819687 
L 14.4 10.819687 
L 14.4 4.519687 
L 3.6 4.519687 
z
" style="fill: #747d8b; opacity: 0.42; stroke: #747d8b; stroke-linejoin: miter"/>
   </g>
   <g id="text_21">
    <text style="font-size: 9px; font-family: 'Roboto'; text-anchor: start; fill: #20242d" x="18.9" y="10.819687" transform="rotate(-0 18.9 10.819687)">pass@1 (one attempt)</text>
   </g>
   <g id="patch_20">
    <path d="M 122.612344 10.819687 
L 133.412344 10.819687 
L 133.412344 4.519687 
L 122.612344 4.519687 
z
" style="fill: #d97349; stroke: #d97349; stroke-linejoin: miter"/>
   </g>
   <g id="text_22">
    <text style="font-size: 9px; font-family: 'Roboto'; text-anchor: start; fill: #20242d" x="137.912344" y="10.819687" transform="rotate(-0 137.912344 10.819687)">Opus 5.5 picks from five</text>
   </g>
   <g id="patch_21">
    <path d="M 249.312656 10.819687 
L 260.112656 10.819687 
L 260.112656 4.519687 
L 249.312656 4.519687 
z
" style="fill: #34a77e; stroke: #34a77e; stroke-linejoin: miter"/>
   </g>
   <g id="text_23">
    <text style="font-size: 9px; font-family: 'Roboto'; text-anchor: start; fill: #20242d" x="264.612656" y="10.819687" transform="rotate(-0 264.612656 10.819687)">GPT-5.6 Sol picks from five</text>
   </g>
   <g id="patch_22">
    <path d="M 387.492188 10.819687 
L 398.292188 10.819687 
L 398.292188 4.519687 
L 387.492188 4.519687 
z
" style="fill: #747d8b; opacity: 0.24; stroke: #747d8b; stroke-linejoin: miter"/>
   </g>
   <g id="text_24">
    <text style="font-size: 9px; font-family: 'Roboto'; text-anchor: start; fill: #20242d" x="402.792188" y="10.819687" transform="rotate(-0 402.792188 10.819687)">Oracle pass@5</text>
   </g>
  </g>
 </g>
 <defs>
  <clipPath id="p37c7d1a783">
   <rect x="5.88024" y="28.366189" width="541.19952" height="179.658884"/>
  </clipPath>
 </defs>
</svg>
